<svg version="1.2" xmlns="http://www.w3.org/2000/svg" viewBox="0 0 850 1200" width="850" height="1200">
	<title>Taiwan_map-svg</title>
	<style>
		.s0 { fill: #eeffaa;stroke: #808080 } 
		.s1 { fill: #eeffaa;stroke: #868c8d } 
		.s2 { fill: #eeffaa } 
		.s3 { fill: none;stroke: #808080 } 
	</style>
	<g id="layer1">
		<g id="g3352">
			<g id="g2527">
				<path id="path2462" class="s0" d="m333.6 1008.1l-3.6 6.3 1 0.9 1.3 0.3 2.6-0.8 0.6-1.1 3-3.2 2.9-1.8 0.4-0.9-0.2-1.1-1.1-0.6-0.5-0.8-0.9-0.8-1.2 0.1-2.1 1-0.7 0.8-0.9 0.5-0.5 0.9z"/>
				<path id="path2464" class="s0" d="m96.6 590.1v1.4z"/>
				<path id="path2466" class="s0" d="m114.4 583.6l0.7-2.5 2-0.7-0.9 1.5-0.5 2.3z"/>
				<path id="path2468" class="s0" d="m123.2 576.7l2.3-0.4-0.6 1.8z"/>
				<path id="path2470" class="s0" d="m80.7 624.4l-0.2 2.5 2.1-0.9z"/>
				<path id="path2472" class="s0" d="m84.4 630.6l-4.3 2.3-1.6-0.7 0.4 2.3 5.3-0.3 4.1-2.5-0.3-1.3-2.5-0.3z"/>
				<path id="path2474" class="s0" d="m77.4 585.3l-0.6 1.1-0.2 0.8 0.8 0.9-1.5 1.4 0.4 1.1 1.1 0.5 0.8 0.8 0.3 0.8-0.9 0.4-0.7 2.2 0.5 1.1-1.2 0.4h-1.3l-1.1 0.7 0.3 1 1.5 0.2 1.8 2.4v1.3l-0.6 1.1-1 0.7-0.7 0.9-1 0.7-0.9 0.3-1.8-1.6-1.3 0.4-0.9 0.7-0.6 1-1.5 1.3-0.6 0.9 0.9 0.6h1.3l0.6-0.8h4l0.8-0.7 0.8-0.4 2.6 0.4 1.2 0.6h1.3l1.2-0.6-0.4-1.1-0.8-0.9-0.3-1-0.1-1.3 1.5-1.4-1.2-2.8 3.7-3.3-0.3-0.9-1-0.8-0.2-1.1 0.6-2.2-0.5-1.1-0.6-0.8-0.3-1.1 0.3-1 1-0.6h2.7l2.3-0.6 1-0.6 0.2-1.4-0.7-0.6-1.1 1-1.1 0.2-1.2-0.6-2.2-2.4 0.3-1.2-0.4-0.9h-1l-0.8 0.8-2.3 4.1z"/>
				<path id="path2476" class="s0" d="m92.3 574.8l-1 1 0.1 1.1 3 2.1 0.6 1.1 0.7-0.7 0.9-2 0.8-0.6 2.8 0.1 0.6 1.1v1.4l0.7 0.8 0.4 0.9 2.2 2.4 0.5 1.2 0.9 0.2 0.8-1 0.2-1.3 2.2-1.3 1.3-0.2-0.1-1.1-1.2-1.2-0.5-0.8 0.8-1.4-1.5-0.1-1.7-3.1-0.7-0.2-0.8 0.5-2.1-0.6-0.3-1.1-1.3-0.1-1.3 0.5-0.5 1.1-1.4 0.2-2.3-0.2-1-0.6-0.3-0.6z"/>
				<path id="path2478" class="s0" d="m104.5 586.2l-1.4 1.9 1.8 1.7h1.3l1-0.6 0.1-1.3 1.7-2-0.8-0.6h-1.4l-1.2 0.3z"/>
				<path id="path2480" class="s0" d="m107.8 590.2l-1.2 0.5-0.3 1 0.3 1 1.1 0.6h1.4l1.2-0.3 0.4-1.1-0.7-0.9-1.1-0.7z"/>
				<path id="path2482" class="s0" d="m100.8 599l-3 2.5-1.2 0.4h-1.3l0.6 1.1v1.4l-0.2 1.2-1.8 1.5-0.2 1.4 1 0.5 2.4-1.1 1-0.7 1.4 0.1 0.9 0.6 0.8 0.9-2.7 2.9-1.3 0.2-2.7-0.5 1.5 1.7 2.1 0.9 1.6-0.2 1.1-0.7 4.1 0.1 0.8 1.1 0.4 1.1-1.3 2.2-0.2 0.7 1.2 0.8-0.1 1-1.1 1h-1.2l-0.8-0.8-1-0.5-1.4 0.2-1.6 3.4-1.5 1.6 0.6 1.1 2.6 0.2 1.4-0.2 1.8-0.6 1.5-0.1 1.6 1.8 1.2-0.3 0.2-1.1 1.1-1v-1.2l0.5-1.3-1.1-0.6-0.2-1 0.9-1 0.7-1.1 4.4-3.5 1.2-0.2 2.2-2.8 0.4-1 1-0.9 6.1-0.1 1.9-0.9 0.8 0.6 0.3 1.3 0.6 1.2 1.1 0.7 1.2-0.3 1-0.5h1.4l0.6-0.8-3.2-3.3-0.8-2.9 0.4-1.1v-1.4l-0.6-1.1-2.4-2.6-0.6-2.1-0.7 0.8-0.4 2.5-1.2-0.1-0.6-1.3-0.8-0.9 0.3-0.8 0.7-0.5-1.7-1.6-1.1-0.5-0.8 0.8-1.7 3.2-1-0.2-0.9 0.3-1.5 1.5-0.3 1-0.7 0.2-0.1-4 1-2.1-1.5 0.1-0.8 0.6-5.2 0.9-0.8 0.6 0.1 1.2 0.7 1v1.4l-0.5 0.9-1.3 0.3-0.8 1v2.8l-0.7 0.8-1.4-0.7-0.9-0.9 0.1-1.7-1.4-0.2-0.2-1.3 0.7-1.1 0.1-0.8z"/>
				<path id="path2484" class="s0" d="m90.5 611.8l-0.6 1.3-0.9 0.5-0.4 1.1 0.1 2.6 1.5 0.7 0.5 0.7 0.9 0.8 0.3-0.9-0.7-0.9 1.2-1-0.8-0.8-0.2-2.9-0.9-0.7"/>
				<path id="path2486" class="s0" d="m92.8 619.9v1.4l4.4 0.1 0.5-0.8-0.7-0.9-1.1-0.8-0.5-0.8-0.3 1z"/>
				<path id="path2488" class="s0" d="m107.9 548.4l-1.9 3.2 0.4 1.6 1.3 0.5 1.1-1.8 1.3-1 1.6 0.3 1.3-0.7 1.1-1.1-4.2-2.9-1 0.1z"/>
				<path id="path2490" class="s0" d="m20.8 657.9l-1.4 3.1 1.4 0.9 1.6-0.4 1.4-0.9v-1.2l-2.2-1.8z"/>
				<path id="path2492" class="s0" d="m72.3 662.9l0.9 1.9v8.7l-0.4 1.7-1.5 0.6 0.9 1.3 5.5 0.1 0.4-0.9-0.6-1.4 0.6-1.2 1.7-0.5 1.2 1.3 1.3 0.9 1.5-0.5 0.9-1h1.9l1.1-0.7-0.5-1.7-0.7-1.3-1.7 0.7-2 2.3-4.5-2.7-0.6-1.4v-3.8l-1 0.3-1.9-0.2z"/>
				<path id="path2494" class="s0" d="m82.3 703.3l0.2 1.9 1.7 0.2-1-1.4z"/>
				<path id="path2496" class="s0" d="m85.8 706.1l-0.5 2-1 1.4 1.7-0.5 1.7-2.3z"/>
				<path id="path2498" class="s0" d="m125.4 707.6l-0.9 1.9 0.7 1.2v1.3l1.2 1.2 0.7-0.1v-1.9l1.3-1.4 0.6-1.3-1-0.9-1.9-0.1z"/>
				<path id="path2500" class="s0" d="m53.8 720.4l-3.2 1.1-0.4 1.5 0.4 1.8 1.1 0.9v1.9l1.8 2.4 0.6 0.2 0.2-1.7 1.5-1.1 1.5-0.3 0.4-3.7 1.2-1.1-2.5-2.1z"/>
				<path id="path2523" class="s0" d="m806.4 190.9l1.6 0.9 1.2-0.1 0.3-1.7 1.7-0.1 1.8 0.3 0.5 1.6 1.7 1-0.7 1-1.6 0.7-3.7-0.2-2-1.9z"/>
				<path id="path2525" class="s0" d="m668.3 901.3v2.7l2.4 1.6 0.7 2.5v2.7l1 1.2 2.5 0.4 2.5 3 2.5 0.7 1.8-0.3-1.8-1.8-0.1-2.1 2.8-4.1v-2.7l-0.5-2.3-1.6-1.3-2.7 0.2-2.3-1.1-5.2 0.9z"/>
				<path id="path2527" class="s0" d="m698.2 1116l1.4 1.9 1.6 1.5h2.7l2.5 0.5 1.2-0.4 0.7-1.9 1.3-1.6 0.3-2.4-2.3-1-1.6-1.6-1.9-0.6-4.3-3.7-0.7-2 0.1-2.5 2.5-0.2-0.1-2.1-1.5-1.4-0.3-2.4 1.2-1.4-1.1-1.6-9.8 0.2-1.9 0.7h-5.4l-1.6-1.1-1.6 0.4v1.8l2 1.2v7.9l1 1.6 2.5 0.9 5 6.2h5.4l2.1 1.5z"/>
				<g id="g4330">
					<path id="path2643" class="s0" d="m104.6 332.9l-0.8 0.5-0.7 0.8-2.4-0.4-1 0.5-0.4 1v2.7l-0.5 1-0.1 1.2-0.8 0.7h-1.4l-0.9 0.4 0.3 1.4 0.6 0.9-0.4 1.1-0.9 0.8-1 0.3h-0.3l0.6 1.1 2.6 0.2 0.4 1.2 1.3-0.1 2-2.6 1.2-0.3 1.1 0.3 0.6 0.8 1-0.5 0.6-0.9-0.1-1.3 0.5-0.9 2.7-0.1 1.2-0.3 0.6-0.8 1.5-4.2-0.2-1.2-3-1.8-0.8-0.9-0.9-0.4-1.3-0.3z"/>
					<path id="path2645" class="s0" d="m77 351.4l0.4 1.1 0.7 0.9-0.4 0.7 1.4 0.1 0.9 0.5 0.8-0.6-0.2-0.6-1.4-0.1-0.6-2.1z"/>
					<path id="path2647" class="s0" d="m75.6 355.1l-0.7 0.9 2.3 0.5 0.8-0.5z"/>
					<path id="path2651" class="s0" d="m163.6 315l-0.3-1.3-0.7-0.9v-1.4l-0.6-0.9 0.5-0.6h-1.2l0.1-0.7-0.9-0.1-0.7 0.2-0.4-0.7-1.6 1.8-0.4-1 0.9-0.5-0.8-0.6-0.9 0.6-0.6 0.8 1 0.8 0.7 1.1-0.3 1.1-1.2 0.1-1.7 1.2-1.2 0.2-1.2-0.1-0.4 0.3-0.3 0.9 0.5 0.8 0.1 1.2 1.2-1.3 1.1 0.4h1.3l-0.1 0.8h-1.3l0.9 0.8 0.4 0.9-0.8 0.6v1.3l-0.9-0.2-1.2-1.7-0.7-0.6-0.2 0.9 0.5 0.9v0.3l-0.9 1-0.9 0.5-0.6 0.9-0.9 0.4h-1.3l1.2 1.2-0.3 0.5 0.5 2.4-0.3 0.7h-0.5l-1.8 1.4-0.5 0.9-8.1-1.1-10.8-7.8-1.2-0.3-0.4-0.3-0.6 0.8-1.3 0.2-2.1 2.1-1.2 0.2-2.1 3.7 2.2 1.3 1.2 0.3-0.1-0.9-0.8-0.9 0.9-0.4 2.8 0.1 0.5-1.1 0.9-0.6 0.7 0.8-0.1 1.8-0.7 0.7-2.4 0.5-0.5 1.2v1.8l0.4 0.3 0.7 1.2 0.8 2.4v2.7l0.2 0.8 1.5 0.2 0.7 0.7-0.1 1.3-1 0.3-0.7-1.7-0.4 0.9-2.3 0.3v2.3l-0.9 0.6-4 0.1-0.6-0.4 0.1-1.3-0.8 1.6-1.1-0.1-0.3 0.9 1 0.7 0.9 0.4 1.7 2.2 1.5 1.2 0.5 1 2.7 0.2 1 0.4 0.6 1.1 1.2 0.5 1.5 0.2 2 1.3 0.5-0.9 1.6-0.2 0.3-1 0.8-0.7 0.5-2.4 3-4.3 0.8-0.6 0.6-1 0.9-0.6 0.1-0.5 1.2-0.2 0.9-0.5 1.2-0.3 0.7-0.6 0.9-0.5 1.3-0.1 2-0.8 7.9-0.6 1.5 0.6 1.6 1.4 1 0.4h1.3l2.3 1 2.4 2.3-0.1 1.1-0.6 0.9-0.8 0.5-0.6 0.2 1.1 0.5h1.4l1-0.4 0.8-0.6 1.2-0.3 0.7-0.9 2.3-0.6 0.3-1-0.4-0.8 0.3-1 0.8-0.4 1.4 0.3 0.6-0.8 0.4-0.8-1.4-1.6-0.2-1.1 1.8-1.1 1.1-0.1 0.5 0.6 1-0.8-0.3-0.9v-0.9l0.5-0.7-0.9-0.5h-1.4l-0.3-0.7-0.7-0.7-0.7-3.4v-2.2l1.4-1 0.4-1.1-0.6-0.7-2.1 0.7-0.9-0.2-0.4-1-0.6-2.3 0.2-1.2-0.7-0.5-0.9-0.5-0.2-3.4z"/>
					<path id="path2655" class="s0" d="m165.9 310l-1.1 0.4 0.5 0.4h1.4z"/>
					<path id="path2657" class="s0" d="m172.4 345.1l-0.6 0.6 1.3-0.1z"/>
				</g>
				<g id="g4313">
					<path id="path2671" class="s1" d="m70.1 205.3h5.9l-2 3.1-4.3-0.4z"/>
					<path id="path2673" class="s1" d="m85.2 207.2l-4 9.6 1.6-0.4 7.5-5.2-4-1.6z"/>
					<path id="path2675" class="s1" d="m65.3 138.1l-0.4 4.4 0.8 4.7-0.8 2.8 6.3 0.8 4.8-1.2 6.4-5.2-2.8-3.5-3.2 2.8-4.4 0.7-2.3-3.1z"/>
					<path id="path2677" class="s1" d="m84.8 140.5l1.2 2.4z"/>
					<path id="path2679" class="s1" d="m83.2 122.6l0.4 9.5 0.8-4.3 3.1-2 4.8-0.4 3.6-2.4 2.8 3.2 0.8-2-3.6-6z"/>
					<path id="path2681" class="s1" d="m89.5 101.9l-2.4 4.8 1.7 0.7 1.9-1.5z"/>
					<path id="path2683" class="s1" d="m95.5 112.6l-2.8 2.8 4-0.8z"/>
					<path id="path2685" class="s1" d="m260.5 71.9l-0.1 1.5-0.8 0.9-0.4 1.2 1.2 0.8 4-1.3 1.5-2.2 1.2 0.3 1.3-0.4-0.6-1.1-1.4-0.5-2-1.8-1.1-0.2-0.7 1.7-1 1.2z"/>
					<path id="path2687" class="s1" d="m257.3 67.5l-2.4 2.1 0.2 0.7 4.2 0.3-0.2-1.2z"/>
				</g>
				<g id="g4342">
					<path id="path4338" class="s0" d="m242.5 289.4l-0.5 2.5 1.4 1.4 1.6 0.7v-2.7l-1.2-1.4z"/>
					<path id="path4340" class="s0" d="m249.5 293.7l-1.3 2.1 1.8 1.1 1.8-1.3-1.3-1.4z"/>
				</g>
				<path id="path4401" class="s0" d="m82.4 940.5l-1.4 4.3 3.2 2.9 3.9-1.8 1.8-3.9-3.2-2.2z"/>
				<g id="g4418">
					<path id="path4403" class="s0" d="m74.9 1014.2l0.4 4.6 3.6-2.1z"/>
					<path id="path4405" class="s0" d="m93.9 1006.7l-4.7 0.7v5.4l2.9 3.9h2.5l1.8-3.9 0.7-4.7z"/>
				</g>
				<path id="path2421" class="s2" d="m343.1 632.3l0.5 3.3 3 3-2 4.6 10.1 1.5 1 2.8 2 2.8 2.5 1.2 2.6-1.5 1.2-2.5 4.6-3.6 2 1.8 4.5 1.5 0.8-2.5 3.5-4.3-2-2-0.7-3-3.1-0.8-1.2-2.5-2.3-1.5-2.8 1-2-1.8-1.8-2.5-2.5-1.3-3 0.8-7.1 5-3-0.7z"/>
				<path id="path2531" class="s2" d="m670.1 93.9l-1.2 2.7-1.3 1.3-0.3 0.7-1.3 1.4v2.7l-1.8 1.1-0.3 2.3 0.7 2.3 1.8 1.2 5.7 0.8 3.5 3.4 1.5 2.6 0.2 8.2-2.7 3.8-1.8 1.6-0.9 2 0.5 5.1 1.1 2.2 2.1-0.2 2-1.1 1.3-1.7 1.2-0.2 2.9 1.2 1.6 1.3 0.7 1.9v2.7l1.2 2.2 2.4 1.6 2.5 0.2 1 4.2 3.8 2.5 10 1.1 2.1-0.9h2.9l0.2-1.8-4.9-2.3-0.3-2.5 0.2-2.1-1.3-4.1v-2.4l1.3-1.9 1.7-1.1 5 0.4 1.7-1.1 2.1-0.6 6.8 0.4 0.5-1.4-1.6-0.7-2.3 0.7-3.9-1.8-4.9-3.6-0.9-1.9 1.3-1.6-0.4-2-1.4-1.4 1.1-1.3 2.3-4.8-0.5-4.7-7.7-6.6 0.5-2.3 1.5-1.6-0.6-1.8-2.8-2.5-1.1-1.6-0.2-5.2-2.8-2.8v-2.7l0.7-2v-2.6l-4.7 0.3-1.9-3.6-1.5-1.6-2.5 4-1.9 0.9-0.9 1.9-3.8 2.2-0.9 2.3-1.6 1.1-2.5 0.1-1.9 0.9-3.1 3.6-0.9 2.3z"/>
				<path id="path2417" class="s2" d="m407.5 398.5l-2 7v3.8l-5.1 10.4 1.8 3 2.7 1 3.6 4.6 2.8 1 2 1.8 3 0.7 5.8-1 1.3 3.3 3.3-0.3 1.7-2 2.6-1.3 6.3-1.5 2.5-1.2 0.8-3.1v-3.2l-2.8-1.1-1.8-2.2 2.3-1.5 3.3 0.5 2.7 1.2h7.1l6.3-1.5 1.8-2h7.6l0.2-11.1-2.3-1.5-2.7-1-4.3-3.3h-3.6l-4 4.8-2.3 1.5-6 1.7-3.6 0.3-2.5-1.3-1.5-2.2h-7.1l-2.2-1.5h-3.1l-2.5 1.7-5.6-1.7-2.7-1.8z"/>
				<path id="path3635" class="s2" d="m766.9 99.1l0.1-1.2-1.1-1.1 0.5-3.4-1.8 0.1-2.3 1.5-2.2-2-1.9-0.1-0.9-0.7v-2.1l-1.6-0.4-0.8 1.4-1.5 0.4-0.3-1.5h-1.3l0.5 1.5 1.4 2-1.8 2.3-2.8 2-1.2 0.1 2.3-2.1-0.8-1.4v-3.2l-1.5-0.1-1.4-0.7-1.8-0.3-2-2h-3.9l-1.1-0.8 0.2-1.3-0.4-0.9-1.8 1.1-2 0.7-1.1 1.6-2.3 0.6-1.2 1.6-4.1 1.8-2.5 0.1-2 0.8-1.8 1.2-4.8 0.5v2.7l1.1 2 2.3 0.7 1.4 1.6 0.2 2.5 3 6.8 2.3 1.6 1.7 2.1 2.3 0.6 1.4-1.3v2l1.6 1.8 7 1.8 5.3 4.6 5.2 0.4 4.7-2.4 2.5-0.1 1-1.8 0.7-2.2-4.6-4.4v-4.8l-0.5-2.2 2.3-0.5 2.8-3.1 2.5 0.6 1.8 1.2 0.9 0.2 1.8-2.9 1.4-1.4z"/>
				<path id="path2861" class="s2" d="m495.2 1042.7l-3 1-2 1.7-3.3 1.3-2.8-4.8-3-0.7h-4.1l-1.2-2.8-2.8-1-2.3-1.6-4.3 0.3-0.5-2.3 0.8-3.3 1.7-1-2.7-1-1-2.5-4.8-2.8 1.7-2.2 2.5-1.3-0.2-7.6-2.5-1.5-1.3-2.5h-2.8l-3.8-4.1-3.5-1.7 4.8-14.7 6.6-1 1.2-2.8-0.7-3.3-2.8-2-2.5-5.3-4.1-2.5-0.2-3-1-3.1 4.3-3.2v-3.8l-4.1-8.1-0.5-4.3-1.8-1-1-3 0.5-3.6 2.8-5-1.2-2.8 1.5-2.3 1-2.8-0.3-3.5 1-2.5 2.1-2 0.7-3.1 1.8-2 0.2-1 4.1-5.6 0.2-3.5 1.8-2.3 0.3-2.5 3.2 0.5 3.6-1.8 6-1.2 3.1-6.3 11.1-0.5 2-2.3 0.2-3.5 1.8-2.1 0.5-9.8 2-2-1-2.3v-3.8l-1-3.3-2.5-1.2-3.3-0.3-2.8-2.5-0.7-1.5-1-8.4-3.8-2.5-2.3 0.8-0.2-1.3-2.6-1.3-1-0.2h-3.3l-1.5 2.3-5 2.5-1.8 2.3-2.8 1.5-2.8-1.5-6.3-7.6-8.6-5.3h-3.7l-3.1 0.7-3.3 4.8-3 0.8-1 1h-2.8l-2.7-1.3v-3.8l-1.8-2-3-1.2-3.1 0.7-2.8 2-3.5 0.3-6.6 4.5-1.2 0.5-4.1 3.3-0.2 1.3-2.5 3.3-2.3 1.7-3.5 0.3-6.1-1.5-2.8 1.2h-3.8l-1.5-2.2-4.5-0.3-1.8-0.7-2.5 1.2-1.5 9.9-1.3 2.5-0.5 3.3-1.3 2.8 0.3 15.1-0.8 1.3 0.3 4.5-1.8 6.8-1.8 2.3-2 6.1-0.2 18.2 3.5 4.2-2.8 16.5-1.2 2.7-2.5 2.2-0.2 1.9-0.7 1.1-0.2 3.8-0.5 1.3 0.8 1.7 0.1 9.1 2.9 0.3 2 1.9-0.1 1.8-0.9 0.2 1.8 2.4 5 3.7 0.9 1.2 1.4 0.6 0.6 0.2-0.1-0.1 0.1 0.4 3.1 1.3 1.1 1.3 1.5 1 2.9 1 1.1 1 1.6 0.8 1 0.9 1.6 0.7 1.2 1 9.6 5.2 1.1 1.4 1.6 0.5 10.9 8.7 0.9 1.3 2 5.4-0.4 0.8 5.4 3.6 5.9 7.3 0.5 1.6v4.7l1.7 2.9 0.8 3.4-0.1 1.8-0.5 1.5 0.1 1.6 4 3.4 0.9 1.2 1.3 1 0.7 1.3 1 3.5 3.3 3.4-0.9 1.8v1.9l0.4 1.8 1.2 1.2 1.6 5 0.1 5.5 1 3.3v1.9l0.7 1.3 0.5 2.1 1.2 1.1 0.8 1.3 0.3 1.8 1.3 1.3 0.3 3.6 0.7 1.3-0.1 1.9-0.7 1.2-5.2 1.5 0.2 1.7 1.8 0.3 0.5 1.3-0.1 0.6 0.3 1.7 0.7 1.3-0.7 1.2-0.8 1-2.6 1.5-0.2 1.7 1 1.1-3.8 3.5v3.7l1.5 0.9v1.9l1.3 1.1-0.4 1.5 3.9 3.4 0.4 1.4 1.3 1.3 0.7 1.3 0.5 2.5-0.9 3 0.2 6-1.2 2.6 0.9 1.1 1.8 0.3 0.9 3.3 1 1.6 3.9 0.4 1.5-2.4 1.1-0.9 0.3-1.6-0.8-3.2 0.7-1.4 1.4-0.6 2-2.2 1.3-0.6h1.8l0.5 1.4 4.2 2.9 0.5 0.1 2.3-0.1 1.6 0.4 0.6 1.3 1.6 0.3 1.4 0.9 1.9 0.6 1.9 0.2 3.7 3.8 0.2 1.7 1.8 0.6 1 0.8 0.6 1.3 0.1 1.7 2.7 2.6h1.8l1.3-0.9-0.2-1.7-1.1-0.8-0.3-1.7 0.1-1.8-0.5-1.3-4.9-7.5v-7.3l0.5-1.4-0.6-1.4 0.5-3 1-0.4 0.1-1.7 3.4-0.5 1.6-0.6 0.7-1.2 1.5-0.4 1.2-1 0.5-1.5 0.2-1.8 0.8-1 1.8-0.1 0.4-3.4 3.7-2.5 0.3-1.4-2-2.5-0.1-9.3-1.1-1.7v-1.9l2.6-4.4 1-1.1v-1.5l-1.5-0.7-2-2.1-0.6-1.6-0.3-4.8 0.3-0.7 0.8-0.1 0.5-0.6 0.7-0.5 0.4-0.7-0.9-1.4v-3.7l-0.8-1.3 0.3-0.6 0.5-0.5 0.3-0.7 0.2-0.7-0.2-0.8v-1.9l-0.3-0.9-0.4-0.6v-1.1l-0.6-0.8-0.3-0.9 0.2-1.6 1.4-1.2 0.4-0.6 0.2-0.7v-1.8l-0.2-0.8v-0.7l0.2-0.5-0.9-1.1 0.7-3.2 1-1.2 0.5-1.3-1-1.2-0.1-0.9"/>
				<path id="path3699" class="s2" d="m815.8 146.9l-3.7-0.7-2.5 0.2-6.2 2.3-5.4 0.4-6.8 4.8-1.4 1.6h-2.9l-2.3-0.9-5.2-0.4-1.8 1.5-0.5 2.1-0.9 1.8 4.1 5.9-1.4 4.3-5.9 3.9-5.4-0.3-2.3 0.3-3 2.5-2.5 3.2 0.5 2.4-0.2 2.1-1.4 1.8-0.2 2.1 0.2 1.3-2.5 0.5-1.8 0.9-7.5-1.1-2.3 0.4-2 1.1-2.6 3.2-4.9 2.6-0.5 1.7-1.8 1.6-1.1 1.8-2.1 0.7-0.7 1.9-1.6-1.8-3.6 1.8-10.5 1.3 1.4 1.2-0.5 2.2-2.4 1.8-2.5-0.8-1.7 1.1-2.2 0.6-0.9 1.9 0.2 2.5-0.4 2.3-1.9 1.6 0.3 2.5 1.5 1.5 0.7 2.1v2.7l-1.4 4.3-2.4 0.3-1.6 1.3-1 1.6-2.2 0.7-2.7 0.2-5.9 3.2-0.5 2.5-5.2 3.4-4.6 0.7-2.3 1.4-4.8-0.2-1.5-0.7-0.5-5-2-1.4-1.4-1.9-2.5-0.8-0.2-1.7-2.5-1.1 0.5-2-3.2-3-1.9-5v-1.1l-0.9-1.8-0.4-2.3 1.1-2 3.2-2.6 1.1-1.6 1.6-1.1v-2.7l-2.4-0.7-0.8-2.5-0.2-2.5-1.6-1.8-1.6-0.9-2.9-2.8-0.7-2-1.4-1.4-0.4-0.9-1.2-0.7-5.4 0.3-2 1.1-2.6 0.2-2.9-0.8-1.8-1-1.6-1.6-1.6 1.2-2.5-0.3 0.2-2.2 4.6-0.9 1.6-1.2-2.5-1.6-0.1-0.2-0.4-2.2 1.2-1.6-3.3-5.1-4.5-2.7-0.9-4.3 0.9-2 1.2-1.4 2.2-1.4-1.6-1.3-2.2-0.2-1.2-2.3 0.9-1.9 1.4-1.5 0.5-5-1-1.9 0.5-2.2 1.8-0.9 11.2 0.4 2.9-2 2-3.6 2.1-0.7 1.6-1-0.2-2.2-2.1-1.6 2-0.7 1.9-1.3 0.9-1.6-2.3-1.6-1.3-1.4-0.3-2.3 0.9-1.8v-0.7l-0.6-2.3-1.7-2.2-1.3-0.9h-5.3l-5.2-1.2-2-1.8 0.5-3.6-9.2-4.4-5-0.6-1.3-1.6-1.2-0.3-1.9-2.5 1-1.4 2.4-2.3 12-0.1 1.3-0.9 5.1-1.6 4.2-2.8 1.5-0.4 2.8-1.6 1.6-0.5 3.7-3.6 0.6-2.4 1.2-1h1.9l5.8 3.8 2.2 2.3 0.7 1.7 0.1 1.8 2 2.7 0.3 1.6 0.8 1.7 0.2 1.6 0.9-0.8-0.3-7.5-2.1-4.5-1-1.2-1.4-1.1-1.5-2.6-3.6-1.6-1.9-0.2-3.4-3.1-0.2-1.1 1.1 0.1 1.9-0.5 2-4 0.3-1.8 2.1-2.2 1.3-0.7 0.9-1.3 0.2-1.9 1.3-2.5 0.4-1.5 1-1.2 0.1-1.8 1.2-1 3.7 0.5 0.7-0.1 3.5-7.4 1.6-0.5 1.4-1 3.4-0.9 1.4-1.1 0.3-1.8 0.6-0.7 0.6 1.7 5.1-0.8 1.1-0.7v-1.9l1.1-0.8 2 2h6l0.5-1.5 1-1.1 1.4-0.2 0.4 0.1 1.2 0.7 1.1 1.1 1.4 0.9h1.9l1.3 0.8 1.8 2.3 3.2 1 3.6 5.2 1.2 1 0.6 1.2 0.4 1.8-0.5 3.8 2 2 1.4 0.6h2l0.6 1.3-1.2 1.3 0.2 1.2 4.9 5.1 6.4-0.4 4.5-3.9 0.4 1.1-1.3 1.1-1.4 0.8-1 1.1 1.1 1 0.3 0.8-2.9 1.4-0.6 1.5 0.5 1.3 1.6 1.1 1.5 0.5 3 2.1-1.5 1.1-2 0.7-1.1 1.6-2.3 0.6-1.2 1.6-4.1 1.8-2.5 0.1-2 0.8-1.8 1.2-4.8 0.5v2.7l1.1 2 2.3 0.7 1.4 1.6 0.2 2.5 3 6.8 2.3 1.6 1.7 2.1 2.3 0.6 1.4-1.3v2l1.6 1.8 7 1.8 5.3 4.6 5.2 0.4 4.7-2.4 2.5-0.1 1-1.8 0.7-2.2-4.6-4.4v-4.9l-0.5-2.1 2.3-0.5 2.8-3.1 2.5 0.6 1.8 1.2 0.9 0.2 1.8-2.9 1.4-1.4 0.9-2.1v-1.2h1.8l1.6-0.6h1.9l-0.6 0.6-0.8 1.3-0.3 1.6 1 1.3h1.6l1.3-1.3 1.4-0.7 2.9 0.8 4.4 0.2 1.4 0.6 1.5-0.6 5.9 1.2h1.9l3.4-1.1 1-1 1.7-0.4 1.7 0.1v1.9l-1.2 0.8-0.8 1.2 0.7 0.9 1 0.9 0.6 1.3-0.4 1.5-1.5 1-1.5 4.5 1.3 3.1 4.1 4.2 0.3 0.6-1.4 1 0.6 0.7v5.7l0.4 1.4 4.9 4.1 4.1 0.3 1.7-1 0.8-0.9h1.8l1.5 0.3 0.9 1 1.3 0.5 1.2 2.2 1.1-1.1 1.4-0.1 1.9 2-0.1 1.5-0.7 1.4-1.8 0.2-0.8 1.3-2.8 1.3-0.7 1.1-1.8 0.2-0.8 1.5z"/>
				<path id="path3690" class="s2" d="m669.8 248.3l-0.5 1.1-1.6 0.5-3.5 0.3-1.3 0.8-1.8 2.4-0.6 5-2.3 3-0.4 1.6-0.6 1.2-0.4 1.5-3.4 5.3-0.2 1.7h-1.8l-1.4 0.6-1.1 0.9-0.4 0.7-0.9 0.9 0.1 0.7 1.2 0.7 0.6 1.4 0.1 1.8 0.5 1.4-1.2 1.1-0.5 0.3-0.5 0.7-1.3 0.8-1.4 1.5-0.4 1.6 0.7 1.3 0.1 7.3-0.8 1.8-1.1 1.4-1.4 1-1.6 2.5-1.8 1.4-0.5 1.3-1.4-0.2-3.4 5-1.3 0.7-1.9-0.4-1.4 2.8-1.4 0.8-1.1 2.9-0.9 1.1-1.5 1.3-1.3 2.5 0.1 1.6-0.6 1 1.4 1.7 0.9 1.8 0.5 2.1-0.9 7.2 2.7 2.6 2 0.8h4.8l4.1 6.9 1.8 0.9 2.7-0.3 1.2-1.7 1.6-1.2 2.3-0.4 1.8-0.9 7.2-0.8 2.1 1 1.1 1.8 1.6 1.1 1.3 2.1 12 7.7h8.1l3 1.3 4 0.5 8.1 5.5 8.4 1 3-0.7-3-2.6 0.7-3 3.3-0.7 2.3-1.6 2.2 1.1 2.1-1.8-0.8-1.5-2-1.8 0.2-3.3 2.1-0.7 4.3 3.7 4.7 1.6 4.6 3.5 9.1 3.8 7.3 0.5 8.1 4 4.1 0.5-0.2-4-0.8-1.3 0.2-3.6 2.5-4.8 0.4-1.5 1.5-2.6 0.5-10.8 0.5-1.7 0.9-1.1v-2.1l1-3.6 1.8-2.4 0.5-1.8 2.6-1.6 1-1.1 1.3-2.7 0.1-1.7 4.6-4.3 4.5-1.9h1.9l0.5-0.3-1.4-0.7-1-1.1-0.7-1.2v-1.9l-2.6-1.5-0.5-5 1.8-1.1 0.9-1.3 3.2-0.6 2.8-1.7 1.7-0.4 0.5-1.7-0.1-1.5-0.7-1.7-0.1-1.8-0.7-1.2-0.3-3.5 0.8-1.1-1-1.4 0.7-1.5h1.9l-0.3-1.4-1-0.9-0.2-0.5 1.5-0.7-1.3 0.3-1.8-0.6-0.1-1.3-2.4-2.1 0.4-1.7 1.8-0.1 1.5 0.9 0.3 1.8 1.7-0.2 1.5-0.7-3.6-3.7-3.1-1-0.4-0.7-0.5-0.2-1.6-2.2-0.1-1.3-3.7-9.1-0.1-3.8-0.8-1.1 0.4-0.7v-2l-0.5-1.6 0.5-10.3-2.9-3.1-0.9-1.5v-1.7l-1.3-1.6-0.7-3.4 0.2-1.8-1.1-1 0.5-14 0.7-2.2v-1.8l1.2-2.8-0.2-3.7 1-3 0.1-1.8 2.4-5.1 0.3-1.8 1.2-2.2 1.5-0.7 1-2.9 0.9-1.2 1.4-0.5 3.8-4.4 1.3-0.6 3.1-3.7 0.3-3.5 0.5-1.5 2.8-1.7 1.5-0.3 1.5-2.2 1.2-0.9 1.2-0.6 2.5-3.6 0.3-1.8 1.7-1.1 1.8-0.2 1.3-0.5 1.1-1.1 1.6-0.3 1.3-0.8 1.9-0.1 2.7-1.2-3.6-0.7-2.5 0.1-6.3 2.4-5.3 0.3-6.8 4.8-1.4 1.6h-2.9l-2.3-0.9-5.2-0.3-1.8 1.4-0.5 2.2-0.9 1.7 4.1 5.9-1.4 4.3-5.9 4-5.4-0.4-2.3 0.4-3 2.5-2.5 3.2 0.5 2.3-0.2 2.1-1.4 1.8-0.2 2.2 0.2 1.2-2.5 0.5-1.8 0.9-7.5-1-2.3 0.3-2 1.1-2.7 3.2-4.8 2.6-0.5 1.7-1.8 1.6-1.1 1.8-2.1 0.7-0.7 2-1.6-1.8-3.6 1.8-10.5 1.2 1.4 1.3-0.6 2.1-2.3 1.8-2.5-0.7-1.8 1.1-2.1 0.5-0.9 2 0.2 2.5-0.4 2.3-1.9 1.6 0.3 2.5 1.4 1.4 0.8 2.2v2.6l-1.5 4.3-2.3 0.4-1.6 1.2-1.1 1.6-2.1 0.7-2.7 0.2-5.9 3.2-0.5 2.5-5.2 3.4-4.6 0.7-2.4 1.5z"/>
				<path id="path2707" class="s2" d="m669.9 248.3l-0.6 1.1-1.6 0.5-3.5 0.3-1.3 0.8-1.8 2.4-0.6 5-2.3 3-0.4 1.6-0.6 1.2-0.4 1.5-3.4 5.3-0.2 1.7h-1.8l-1.4 0.6-1.1 0.9-1.5 1.9-0.8 0.5-1.8 0.4-3.6-0.5-1.5-0.9-1.3-1.9h-0.9l-0.8-1-0.5-1.5-1.3-0.5v-4l0.7-1.3 0.4-1.8-1.5-0.8-1.7-0.2-1.2-0.8-0.2-3.8 1-1 0.2-1.9 0.5-1.5-0.3-1.9-1.6-0.7h-1.9l-0.6-1.3-0.3-1.8-0.8-1.2-1.1-0.9-2.3-2.9-2.9-1.4-3 1-1.4-0.5v-3.8l1.2-1.1 0.6-1.3v-3.8l-2.2-0.4 0.2-4.4 0.5-1.4 0.9-1.2 0.3-1.7-1.2-1.2-0.7-1.6-1.7-0.3-1.3-1.3-1.4-0.5-1.7-0.1-0.6-0.8h-0.2l-1.7-0.9-1-1.2-1.5-0.9-0.4-0.7-0.1-1.1-0.9-2.4-1.5-0.6-2.1-0.4v-1.9l-1.5-0.5-4 1.8h-1.6l-5.7-4.6-1.4-0.6-1.1-1.2-2-0.7v-1.4l-1.9-0.3-1.8-0.6-3.5-2.8-0.7-0.8-3-1.9 0.4-1.7 1.8-2.8-0.5-5.5-1.4-1-11.8-1-0.7-1.6-0.3-1.8 1-0.9-1.4-0.8-1.2 0.9-1.7 0.6-1.9 0.2-1.6-1.3-2-0.6h-1.9l-1.3-1.4-3-1.2 0.1-3.6 0.6-1.5-1.1-3.1-0.1-1.7-1.8-0.2-2.1-2.1-3.7-0.3-4.3 1.3-2.3-1.5-4.3 2.5-3.1-0.8 0.5-0.8 1.2-1.1 3.1-4 0.6-1.4 1.3-1.2 1.2-0.8 1.8-1.9v-3.7l-0.9-1.2 0.1-1.8 3.1-3.8 1-2.9 1.1-0.8 2.4-3.6 4.7-4 3.9-1.8 1.6-0.2 1.2-1.2 1.5-0.5 2.5-1.6 1.3-1.4 1.6-1 1.8-0.5 2.8-2.2 1.5-0.6h2l12.1-3.2 1.6-1.2 3.5-1.7 3.6-3.6 1.7-1.1 2.1-0.1 8.4-3.4h1.9l1-1 3.5-0.7 1.5 0.5 2.5 2h2.4l0.8 1.9 1.2 1.4 1.3 0.4 1.2 1.6 5 0.5 9.3 4.5-0.5 3.6 1.9 1.8 5.2 1.2h5.4l1.2 0.9 1.8 2.1 0.5 2.4v0.7l-0.9 1.8 0.4 2.3 1.3 1.4 2.3 1.6-0.9 1.6-2 1.3-1.9 0.7 2.1 1.6 0.2 2.1-1.6 1.1-2.2 0.7-1.9 3.6-2.9 2-11.2-0.4-1.8 0.9-0.6 2.1 1.1 2-0.5 5-1.5 1.4-0.9 2 1.3 2.3 2.1 0.2 1.6 1.3-2.1 1.4-1.2 1.4-0.9 2 0.9 4.3 4.4 2.6 3.4 5.2-1.2 1.6 0.3 2.2 2.7 1.8-1.6 1.2-4.7 0.9-0.1 2.1 2.5 0.4 1.6-1.2 1.6 1.6 1.8 1 2.8 0.7 2.7-0.1 2-1.1 5.3-0.4 1.3 0.8 0.3 0.8 1.5 1.5 0.7 1.9 2.8 2.9 1.6 0.9 1.6 1.8 0.2 2.5 0.9 2.5 2.3 0.7v2.7l-1.6 1-1 1.6-3.3 2.7-1 2 0.3 2.3 0.9 1.8v1.1l2 5 3.2 3-0.5 2 2.5 1 0.1 1.8 2.5 0.7 1.5 2 1.9 1.4 0.6 5z"/>
				<path id="path2732" class="s2" d="m492.1 228.4l0.2 1.1 1.3 0.6h2l1.4-0.5 1.1-0.9 1.4 0.5 1.9 2.3 0.5 1.7v1.5l4.9 1.2 0.7-0.5 2-2.4 0.4-3.6 1.2-2.9 1.7-0.4 1-1.5 1.5-0.7 1.1-0.8 0.5-1.6 0.9-1.4 5.4-1.2-0.5-1.4 1.2-1.8 1.5-0.5h1.9l7.1 7.2 1.5-1v-3.8l-3.3-11.1-1.9-2.6-3.4-2.9-3.7-0.4-0.1-0.7-0.5-1-1.4-0.9h-1.9l-7.7-1.8-1.9-2.7-0.5-1.4-1.6-1.1-1 0.7-1.6 0.6-5 7-1.3 1.1 0.7 3.1-0.3 1 0.5 0.5 1.9 0.1 0.3 1.7-0.8 1.5-0.4 3.5-0.7 1.1-0.2 3.9-1.8 2.6-0.5 1.5 1.3 1.1-0.7 1-0.6 1.8-2.3 2.2-1.8 1z"/>
				<path id="path2726" class="s2" d="m622 324.9l-1.7 0.9-0.6 1.4-1.3 0.8-5.8-0.1-1.2 0.6-5.7-0.1-0.9-1-0.1-2.2 0.2-1.3-0.6-0.7v-3.8l-0.9-1.3-1.5-0.9-1.1-1.2-0.7-1.5-2.1-2.4-0.6-1.5-1.6-0.8-0.7-1.1-1.7-0.9-0.5-1.3 0.3-2.9-1.2-1.5-3.6-0.3-1.5 0.5-2.7 1.8h-4.3l-1.4 0.8h-1.9l-1.2-1.2-7.6-0.3-1.4 0.5-1.5-0.4h-1.9l-2.1 1.9-3.5 1.4-3.4-0.8h-5.9v-2.1l-0.9-1.9v-2.1l0.8-1.5 2.1-2.2 0.5-1.6-0.1-1.9-1.5-2.9-2.7-2.1 2.1-3.3 1.1-4.2 1.1-1.3 0.2-1.8 0.8-1.3 0.4-1.6-1.4-0.8-1.1-3.4-1.9-0.5-1.4-3.1-0.9-0.4-2 0.5-1.5 0.9-2.4-1.9-0.9-1.5-1.6-0.4-1.3-0.9-2-3.2-1.8-0.2-1.8-0.8-0.1-1.7-1.1-1.3-1.8-0.3-3.3-2.1-0.9-1.5-1.3-1.4-1.7-2.9-0.2-1.8-2.1-0.7 0.4-1.3 0.9-1.4 0.3-1.6 1-1.3-1.4-0.8 0.9-1.1-3.6 0.3-1.2 1-1.6 0.6-0.8-1.1h-2.9l-1.6-0.8-1-1.2 2.6-3.1 0.3-3.6 1.3-3 1.6-0.3 1-1.5 1.6-0.7 1.1-0.9 0.5-1.5 0.9-1.4 5.4-1.2-0.5-1.4 1.2-1.8 1.5-0.5h1.9l7 7.2 1.6-1v-3.8l-3.3-11.1-1.9-2.7-3.4-2.9-3.7-0.3-0.1-0.7-0.5-1-1.4-0.9h-1.9l-7.7-1.9-1.9-2.6-0.5-1.4-1.6-1.3 0.6-1.5 2-2.5 0.5-1.8 1-0.9 0.6-3.4 5.6-6.9-0.8-1.5-0.3-1.9 5.4-7.9 3.1 0.8 4.3-2.5 2.3 1.5 4.3-1.3 3.7 0.3 2.1 2.1 1.8 0.2 0.1 1.7 1.1 3.1-0.6 1.5-0.1 3.6 3 1.2 1.3 1.4h1.9l2 0.6 1.6 1.3 1.9-0.2 1.7-0.6 1.2-0.9 1.4 0.8-1 0.9 0.3 1.9 0.7 1.5 11.8 1 1.4 1 0.5 5.5-1.8 2.8-0.4 1.7 3 1.9 0.7 0.8 3.5 2.8 1.8 0.7 1.9 0.2v1.4l2 0.8 8.2 6.3h1.7l3.9-1.8 1.5 0.5v1.9l2.1 0.4 1.5 0.6 0.9 2.4 0.2 1.1 0.3 0.7 1.5 0.9 1.1 1.2 1.6 0.9h0.3l0.5 0.8 1.7 0.1 1.4 0.5 1.3 1.3 1.8 0.3 0.6 1.6 1.2 1.2-0.3 1.7-0.9 1.2-0.5 1.4-0.1 4.4 2.1 0.4v3.8l-0.6 1.3-1.2 1.1v3.8l1.4 0.5 3-1 3 1.4 2.2 2.9 1.2 0.9 0.7 1.2 0.3 1.8 0.6 1.3h1.9l1.6 0.7 0.3 1.9-0.5 1.5-0.1 1.9-1 1 0.1 3.8 1.2 0.8 1.7 0.2 1.5 0.8-0.4 1.8-0.7 1.3v4l1.4 0.5 0.5 1.5 0.7 1h0.9l1.3 1.9 1.5 0.9 3.6 0.5 2.6-0.7 1.5 0.9 0.6 1.4 0.1 1.8 0.5 1.4-1.2 1.1-0.5 0.3-0.5 0.7-1.3 0.8-1.4 1.5-0.4 1.6 0.7 1.3 0.1 7.3-0.8 1.8-1.1 1.4-1.4 1-1.6 2.5-1.8 1.4-0.5 1.3-1.4-0.2-3.4 5-1.3 0.7-1.9-0.3-1.4 2.7-1.3 0.8-1.2 2.9-0.9 1.1-1.5 1.3-1.2 2.5-0.2 1.8z"/>
				<path id="path2781" class="s2" d="m508 237.3l1.5 0.8h2.9l0.9 1.1 1.5-0.6 1.2-1 3.6-0.3-0.9 1.2 1.4 0.7-1 1.3-0.3 1.6-0.9 1.4-0.3 1.3 2 0.7 0.2 1.8 1.7 2.9 1.4 1.4 0.8 1.5 3.3 2.2 1.8 0.2 1.1 1.3 0.2 1.7 1.7 0.8 1.8 0.3 2 3.1 1.3 0.9 1.6 0.4 0.9 1.5 2.4 1.9 1.5-0.9 2-0.5 0.9 0.4 1.4 3.1 1.9 0.5 1.1 3.4 1.4 0.8-0.3 1.6-0.9 1.3-0.2 1.8-1.1 1.4-1.1 4.1-2 3.3 2.6 2.2 1.5 2.9 0.1 1.9-0.5 1.5-2.1 2.2-0.8 1.6v2l0.9 1.9v2.1h6l3.4 0.8 3.4-1.4 2.1-1.9h1.9l1.5 0.4 1.4-0.5 7.6 0.3 1.3 1.2h1.9l1.3-0.8h4.3l2.7-1.7 1.5-0.5 3.7 0.2 1.1 1.5-0.2 2.9 0.5 1.3 1.6 0.9 0.8 1.1 1.5 0.8 0.6 1.5 2.2 2.4 0.6 1.5 1.1 1.3 1.5 0.8 0.9 1.3v3.8l0.7 0.8-0.3 1.2 0.1 3.9-1.8 0.9-2 1.6-1.4 1.8-0.2 2.5-3.4 5.5v2.7l-2.1 0.5h-2.7l-1.8-2.5 0.9-1.4-2.6-1.1-2 0.9-0.7 2.2-1.3 1.7-2.3 0.8-4.8 6.7-2 0.8h-5.3l-1.8 1.2-0.7 2-0.8 0.2-1.9 2.1-0.4 2.5-2.1 0.5-3.4 2.9-2.2 0.5-5-0.5-4.4 1.6-5.4 6.8-2.7 0.2-1.9-1.1-3.2-3-0.4-2.5-1.8-1.3-2.7-3.9-1.6 0.3h-2.6l-2-0.9-5-0.3-6.1-2.2-4.8-0.1-2.1 0.9-1.5 1.4v2.7l0.9 1.9 0.4 5-0.9 2-1.8 1.4-2.1 0.7-10.4-0.3-2 0.9h-5.3l-5.2-1.6-3.2-3.1-1.1-1.9-1.6-1.3-11.2-2.1-3.4-2.9-2.5-0.7-1.5-2-3.5-1.9-1.5-1.6-2.1-0.8-1.3-1.6-0.9-0.3-3-0.4-1.2-1.8-3.3-2.1-7.5-9.6h-0.3l-0.9-1.8-4.5-1.8-2.3-3.8-0.3-1.9-3.8-4.7 1.6-0.8 3.8-3.1 3-4 0.6-1.3 5.2-6.8 1.2-3.2 1.5-1.9 9.4-28.2 2.3-2.9 0.1-0.7 1.2-1.3 3.1-0.7 2.7 2.2 1.1 1.7 0.4-1.5-0.4-2.1 2.6-1.6h1.4l1 0.3-0.1-1.7-1.6-0.7-1.5-1.2 1-0.8 0.6-3.3 3-5.3 1.7-0.3 2-2.4 5.5-0.2 4.4-2.1h2.5l3.9 1.4 1 1 2.2 0.5 1.3-0.7-0.7-1-1.9-0.3-1.5-0.6-0.8-1.7-1.8-0.2 0.2-1.8 1-1.1 1.5-0.8 5.5-4.6 0.6-1.7 0.8-1.1 0.4-1.5v-1.9l1.3-2.8 1.2-1.1 0.9-1.3 1.9-0.9 0.5 1 1.3 0.6h2l1.4-0.5 1.1-0.8 1.4 0.5 1.9 2.2 0.5 1.7v1.5l4.1 1.1z"/>
				<path id="path2785" class="s2" d="m304.5 522.4l6.4 2.3 3.7 0.3 5.8 1.7 16.2-0.7 2.8-1 14.6 0.2 2.6-1.2 5 2.7 0.8 1.3 4.3 0.5 8 4 6.4 1.6 7.3-0.3 3-0.8 30.6 5.1 5.8-1.8 2-1.7 1.3-2.6v-3.2l-2.1-0.6-2.5 1.3h-3.3l-2.5-1.3-7.3-7.8 0.2-2.3 1.3-2.5-1.8-2 1.5-2.5 0.6-3.3 1.2-2.5 1.3-9.6-0.5-2.8 0.5-2.3-1-5.5 1.5-2.3 2-1.8 1.3-2.5 0.2-3.5-1.2-2.8-1.8-2-0.5-0.3 0.2-3.8h7.6l4-2.2-5.8-4.8-1 0.7-3.6 0.3-1.6-1.4-2.5-0.2-1.4-6.9 0.9-2v-2.8l-1.8-1.5-1.6-2.1v-5.4l-0.4-0.9-1.6-1.2h-2.5l-7.5-2.2-2.7-0.1-1.9-1.1-2.2-0.5-1.6-1.3-1.9-0.9-1.5-2.3h-0.5l-1.8-1.3-1.2-1.6 0.1-2.5 1.3-1.6-3.2-3.4-0.4-2.6-1.1-2.7-0.3-2.3-2.2-3.4-4.4-2-1.5 0.4 0.5 1.5 0.7 0.8-1.6 0.8-3.2 4.2-0.1 0.1-2.6 4.3-1.3 0.8-5.5 0.1 0.2 1.5 1.6 1.3-0.2 3.6-1 0.9-0.6 1.4-0.4 1.8-0.9 1.2-0.1 3.8-0.1 0.4-1.1 1.5v1.9l0.7 1.2-0.3 2-1.4 1.2-3 1.2-0.7 1.7-2.3 2.4-0.3 3.5-0.6 1.4-2.7 0.5-1.4 1.2-1.6 0.2-2.4 1.8-1.4 0.5-0.3 1.6-4.1 3.1-0.7 3v2.1l-0.9 1.6-0.3 1.6-1.3 0.9-0.6 3.3-2.4 0.1-1.9-0.4-1.4 1.2-1 4.9 0.4 1.1h3.8v0.9l-4.8 7.2-0.2-0.1-0.4 2-0.9 1.1-0.4 1.6-1 1-1.3 4.8-2.1 2.3-0.5 1.9-1.9 2.5-0.6 1.5-0.9 1-0.3 2.2-1.2 0.7-1.2 1-1.4 0.7-0.8 1.3-1.5 0.8v1.3l1 1.3-0.7 0.5h-1.9l-0.9 1.3-0.2 3.6-0.4 1.1"/>
				<path id="path2792" class="s2" d="m374.1 403.9l4.4 2 2.2 3.4 0.3 2.3 1.1 2.7 0.4 2.6 3.2 3.4-1.3 1.6-0.2 2.5 1.3 1.6 1.8 1.3h0.5l1.4 2.3 2 0.9 1.6 1.3 2.2 0.5 1.9 1.1 10.2 2.3h2.5l1.6 1.2 0.4 0.9v5.4l1.6 2.1 1.8 1.5v2.8l-0.9 2 1.4 6.9 2.5 0.2 1.6 1.4 3.6-0.3 1-0.7 5.8 4.8 8.9 3.2 2.1-0.5h5.4l2.5 0.5 1.8 1.6 2.1-0.2 4.3-1.4 6.4-7 3.8-9.8 3.2-3.2 4.5-1.2 1.2-1.6-0.4-6.7 3.8-7.5 1.6-1 2.3 0.7 1.1 1.6 4.6 0.9 1.6 1.4v5.4l1.1 0.5 0.7-1.6 1.5-1.2 0.9-1.8 1-4.3 1.6 1.4 0.4 0.5 2.8 1.5 2.5 0.3 2.5-0.5 6.1-5.2 2.3-0.3 1.5 1.2 2.3 0.5 5.2-0.1 1.8-1.1 2.6-2.7 2-6.2 1.4-1.5 2.5-0.5 4.3 0.5 1.6-1h4.1l4-2 1.2-2 2-1.2 1.2-1.6 1.8-1.1 1.3-2 0.5-2.1 1.8-0.9 10.5-0.2 1.4-1.2 1.3-2 0.7-1.9 2.5-0.2 1.3-1.6 1.6-1.1 1.9 0.9 1.3 1.4 4.3 1.3 0.9-1.8 1.7-1.1h2.7l4.1-1.8 1.6 1.1 2.5 0.9 2-0.7 1.2-2.2 0.6-2.1 2.3-3.8h0.9l3.2 2.4 1.1 1.6 4.6 1h2.7l1.1-1.6 4.8 0.6 1.2 1.2 6.5 1.8 1.8-1.4 0.9-1.8-0.2-2.5 3.7-1.6 1.1-1.6 2.7 0.2 1.4-1.3 0.5-2.3-0.9-4.7 1.3-1.9 2.3-0.9 1.6-1.1 1.8-4.1 1.4-1.6h2.7l1.8-1.3 1.4-1.7 2.2-4.3 0.7-7.3 0.9-2 2.3-1.3 1.3-1.4-1.3-2.1-1.6-1.1-1.1-1.8-2.1-1.1-7.2 0.9-1.7 0.9-2.4 0.4-1.6 1.2-1.2 1.6-2.7 0.4-1.8-0.9-4.1-7h-4.8l-2-0.7-2.7-2.7 0.9-7.1-0.5-2.1-0.9-1.8-1.2-1.5-0.4-0.2-1.8 0.9-0.6 1.4-1.3 0.8-5.8-0.1-1.2 0.6-6.6-0.2v0.8l-1.8 0.9-2 1.6-1.4 1.8-0.2 2.5-3.4 5.5v2.7l-2.1 0.5h-2.7l-1.8-2.5 0.9-1.4-2.7-1.1-1.9 0.9-0.8 2.1-1.2 1.8-2.3 0.7-4.8 6.8-2 0.7h-5.4l-1.8 1.3-0.7 2-0.7 0.1-1.9 2.2-0.4 2.5-2.1 0.5-3.4 2.9-2.2 0.5-5-0.5-4.4 1.6-5.4 6.8-2.7 0.1-1.9-1-3.3-3.1-0.3-2.5-1.8-1.2-2.7-3.9-1.6 0.3h-2.7l-1.9-0.9-5-0.3-6.1-2.2-4.8-0.2-2.2 0.9-1.4 1.5v2.6l0.9 2 0.4 5-0.9 2-1.8 1.4-2.2 0.7-10.3-0.3-2 0.9h-5.3l-5.2-1.6-3.2-3.1-1.1-1.9-1.6-1.3-11.3-2.1-3.4-2.9-2.5-0.7-1.4-2-3.6-1.9-1.4-1.6-2.1-0.8-1.3-1.6-0.9-0.3-3-0.4-1.3-1.8-3.2-2.1-7.5-9.7h-0.3l-0.9-1.7-4.5-1.8-2.3-3.8-0.4-1.9-3.6-4.8-1.7 0.5-0.3 2.2-9.1 12.7-1.9 4.6 0.3 3.8-0.1 0.5-1.3 1.7-0.5 1.4-2.8 1.2-1 1.8-4.7 3.1 0.2 1.4 0.5 1.2 0.1 2.1-0.9 1-2.4-0.7 2.8 1.2 0.5 1.3-1 1.4-0.9 0.7-2.3-2.9-0.9 0.5-1.1 1.3-2.1 1.1 0.1 1.8-0.8 1.3-2.8 1.6-0.8 1.4 4.1 5.7-0.1 1.6-0.9 1.3-0.3 1.5-1.1-1.9 0.2-1.6-1.6 1.6-1.5-0.1-0.4-1.9 0.9-1.8-0.1-1.7-1.3 1.2-2.2 6.4 1.6 1.3 0.6 1.4 0.7 0.5 0.1-0.2 1.8 1.1v1.9l-0.7 1.5-3.9 5.7-1.1 0.9-1.5 3.8z"/>
				<path id="path2812" class="s2" d="m446 595.9v-3l-2.3-2-3.3-0.5-1 2.7-2.8 0.6-3.3-0.8-0.7 3-3.1 0.5-3.5-0.2-2.3-1.5-1.5-2.8-0.7-3-4.8 3.5-0.3-7.3 2-5.8 0.3-0.3 1.8-4 0.5-3.3-0.3-3.6-1.5-2.5-0.3-7.3 0.8-3 2.8 0.5 0.5-7.1-5.1-10.9-20.7-3-3.8-1.5-2-0.3-10.3 1.1-14.4-5.6-4.3-0.5-0.8-1.3-5-2.7-2.6 1.2-14.6-0.2-7.6 2-11.3-0.3-5.9-1.7-3.7-0.3-6.5-2.2-3.9 0.1-1.3-0.7-1.4-0.2-0.5 1.5-1.7 0.1-6.1 10.9-0.1 0.6-2.2-0.1-1.2 0.8-2 2.4-0.7 1.6-0.2 3.8-1 1.1-0.3 1.6 1.7 2.4-0.3 1.8-1.6 2.4-3.2 0.1-0.4 1.6v1.8l-2.1 1.2v2.4l-0.2-0.1-0.5 0.2-0.3 1.6v2l0.5 1.3 1.9 0.2 1.4 2-2.3 2.8-1.4 2.7-0.4 1.5-1.9 3.2-1 3.5-1.3 1.9-2.6 7.5 0.3 7.4-0.4 1.5 0.1 1.4 1.8 0.9-0.2 1.7-1.5 0.6-2.1 1.6 0.5 2.2 1.1 0.6 1.5 0.3 0.2 1.9-1 1.2v3.8l1.2 0.9 2 2.8 1.4 1.1-1.2 0.8-0.9 1.6-1.8 0.1-0.5-1.4-1-0.8-1.5 0.8-2.2 2.6 3.8 0.1 5.8 2.3h3.8l1.5 2.2h3.8l2.8-1.2 6.3 2.2 3.8 0.6 2.3-1.8 1.7-2.3 0.3-3.5-0.8-3.1 2.1-2h3.2v3.3l3.6 1.3 1-2.8 4.8-2.8 0.7-3.5 1.8-2 6.3-2.6 2.8 1.6 1.8-6.1 1.5-2.5 4 0.2 2.6-1.2 1-3.1 5.8-1.7 1-2.8 2.3-1.8 1.7-2.3 2.8 1.3 2.3 1.8 2.7 1 5.9-2.3h7.5l5.3-2.8 5.1 1.3 1.5 5 4.3 3.6 1.5 2.3 2.5 1.5 3.6 0.2 2.2 1.8 3.1 1 13.9 1.5 2.7-1.5 1.8-2 5.6 0.2-0.5 3.8 2 3.3 2-2 3.3-0.8 2 2 3-0.2 2.8-1 3.6 0.2 2.7 1.6 3.6 0.5 1.2-2.6v-3.5l-0.7-3-1.5-2.3z"/>
				<path id="path2843" class="s2" d="m675.3 655l-3.3-1-2.3-1.8-3-0.7h-3.8l-2.8 1-4.3 3.5-7.3 13.2-0.3 0.2 0.6 4.6 2 2.2 3.3 1.8v0.3l-12.2 18.4-0.5 8.8-1.7 2.3-2.3 1.5-1.3 2.5-1.5 6.1-2.3 1.8v3.8l-1.5 2.7-0.2 2.8-3.1 5.8-4.3 3.6-1 2.7 0.8 3.6v11.3l-1 2.8-9.9 1.5-2.5 1.8-2-0.3-0.3-3.5-1.7-3.3-2.1-1.7-4.5-0.3-1-0.8-1.8-2.2-3-1-2.5-1.6v-2.7l-3.8-5.3v-4.3l-1.3-2.8-1.8-2.3-5-3.3-5.3 2.6-0.5 1.2h-1l-2.8-1.2-1.3-2.6-3.5-4-3.5-0.3-5.3-3.2h-4.3l-1.3-2.6-0.8-0.7-3.7-9.1 0.2-3.8-3.8-4.8-0.7-2.5 0.7-3-0.2-3.6-15.4-10.6-3.1-0.7 1-3.6 1.8-2.5 3.3-1-0.5-2.3 1.5-2.3 3.3-0.5 1.5-2.2v-7.1l-2.3-1.5-0.5-1.7 1.3-1.1 3-0.8 3.1-2 3-0.7 0.7-3.6-1-3-2.2-1.8 1.7-2 0.8-3.3 2-2.3 2.3-1.5 0.7-3 2.3-1.5 3.5 0.2 2.8-1.2h3.8l1.3-0.5 2.5 1.5 3 0.7 4.8-4v-7.6l0.8-3 2.3-1.5-2.3-6.3 2.5-1.3 3.8 1 2.8-1.2 1.5-2.3 3.3-1.5 4.5-0.3 3.8-8.3 1.3-10.4 1.2-2.5v-3.8l2.1-5.5v-9.4l-2.6-2.3-0.2-3.5 0.7-2.8-8-5.8 0.2-3.5 3.3-0.8 3-2.2v-1.6l-0.7-3 0.5-3.5 2.2-1.5 1-3.3 0.3-3.8 1-3 2-2.6 0.3-3.8 2.3-2.2 3-0.8-0.5-5.5-1.8-3.1 4.3-3.8-0.2-3-1.1-3.3v-3.8l0.8-2v-7.6l-2-2.5-1-0.2v-3.6l6-12.9 0.3-7.3 2.3-2.2 2.5-1.3 1.5-2.5 2.5-1.3 2-3.5 0.8-2.6 0.3-3.5-1.6-2.3-3.5-0.5-1-2.7-1.8-2.1-3.8-1.2-0.7-1-0.3-6.4 2.8-6.5 3-0.8 2.1-1.7 2.7-1.3 3.8-3.8h3.8l1.5-2.3-1.7-5.6 2-1.5 0.9-1.8-0.2-2.5 3.7-1.6 1.1-1.6 2.7 0.2 1.4-1.3 0.5-2.3-0.9-4.6 1.3-2 2.3-0.9 1.6-1.1 1.8-4.1 1.4-1.6h2.7l1.8-1.2 1.4-1.8 2.2-4.3 0.7-7.3 0.9-2 2.3-1.2 1.3-1.5 12 7.7h8.1l3 1.3 4.1 0.5 8 5.5 8.4 1 3-0.7-3-2.6 0.7-3 3.3-0.7 2.3-1.6 2.3 1.1 2-1.8-0.8-1.5-2-1.8 0.2-3.3 2.1-0.7 4.3 3.7 4.8 1.6 4.5 3.5 9.1 3.8 7.3 0.5 8.1 4 4.2 0.5-0.2 1.3-0.6 1.2-1.5 0.7-0.9 1.5-2.2 2-2.7 3.9-0.1 5.6-1.2 0.9-1.1 2.6-1.5 0.7-0.8 1.9-0.2 0.1-3.6 0.4-3 5.4-1.3 1-1.6 0.3-3.3 2.9-1.5 0.3-0.9 1.2-1.2 0.7-4 5.3-1 3.3v5.7l2.4 4.3-0.7 0.8-0.5 5.1-0.3 0.5-0.4-0.2-1.4 2.4-1.3 0.5-3.3 3.7-1.5 0.8-4.3 4.7-0.7 1.4 0.2 11.9 0.6 1.2 0.5 3.3 7.2 7.5v1.8l-1 3.4-1.4-0.3-0.4 1.6 0.7 1.3-1.6 0.5-1.1 2.5h1.6l-0.7 3-1.9 0.2-0.8-1.2h-1.5l-1 0.9-0.6 1.7-1.2 1.1-1 3 1.4 3.1 0.1 5.5-1 3.4-0.1 5.3-0.5 1.7-0.1 5.5-0.7 1.3-0.3 3.4-1.9 4.3v1.9l-0.7 1.4-0.2 1.6-1.9 3.9-0.3 1.8-3.3 4.8-0.6 2.1v10.5l0.5 1.4-1.4 6.4-3.5 5.5-1.6 1.1v1.8l-0.7 1.4-0.1 1.7 0.9 0.7 0.7 2.5-0.8 1.1-0.3 1.7-0.6 1.2-0.9 7-0.9 1 0.1 1.2 0.8 1.2-1 1.1-1.5 0.6-0.5 3.5-1.3 1.5-0.1 12.7-0.9 1.8-0.1 3.9-0.9 3.1-1.4 1.2-0.4 1.7-1.6 2.3-0.2 1.9-1.2 3.3-0.1 3.7-0.9 1.4-0.3 2.1 0.5 0.4 0.7 1.6v3.8l1.6 2.6-0.1 3.6-0.5 1.5-1 1.2-1.5 0.6-1.8 0.1 0.4 0.5 1.6 1-0.8 1.5v2l-0.8 3.2v1.9l-0.7 1.5z"/>
				<path id="path2425" class="s2" d="m417.9 537.8l5.1 10.9-0.5 7.1-2.8-0.5-0.8 3 0.3 7.3 1.5 2.5 0.3 3.6-1.6 6-0.7 1.3-0.3 0.3-2 5.8 0.3 7.3 4.8-3.5 0.7 3 1.5 2.8 2.3 1.5 3.5 0.2 3.1-0.5 0.7-3 3.3 0.8 2.8-0.6 1-2.7 3.3 0.5 2.3 2 0.1 3 6.4-0.7 11.6 4.3h3.8l3.3 0.7 1.3 2.5 0.2 8.6-0.7 3.3-2.8 2.3v3.8l1.5 2.5 2.3 2 0.5 7.3 2.5 5.9 2 2.2 11.4 1.3 5.5-2.3 11.2 1 2.7 1 11.9 0.8 6.3 2.3h0.5l2.5 1.7 1.3 6.3 1 0.6 1.3-1.3 3-0.8 3-2 3.1-0.7 0.7-3.6-1-3-2.2-1.8 1.7-2 0.8-3.3 2-2.3 2.3-1.5 0.7-3 2.3-1.5 3.5 0.2 2.8-1.2h3.8l1.3-0.5 2.5 1.5 3 0.7 4.8-4v-7.6l0.8-3 2.2-1.5-2.2-6.3 2.5-1.3 3.8 1 2.8-1.3 1.5-2.2 3.3-1.5 4.5-0.3 3.8-8.3 1.3-10.4 1.2-2.5v-3.8l2-5.5v-9.4l-2.5-2.3-0.2-3.5 0.7-2.8-8.1-5.8 0.3-3.5 3.3-0.8 3-2.3v-1.5l-0.7-3 0.5-3.5 2.2-1.5 1-3.3 0.3-3.8 1-3 2-2.6 0.3-3.8 2.2-2.2 3.1-0.8-0.5-5.5-1.8-3.1 4.3-3.8-0.3-3-1-3.3v-3.8l0.8-2v-7.6l-2-2.5-1-0.2v-3.6l6-12.9 0.3-7.3 2.2-2.3 2.6-1.2 1.5-2.5 2.5-1.3 2-3.5 0.8-2.6 0.2-3.5-1.5-2.3-3.5-0.5-1-2.8-1.8-2-3.8-1.2-0.7-1-0.3-6.4 2.8-6.5 3-0.8 2-1.8 2.8-1.2 3.8-3.8h3.8l1.5-2.3-1.7-5.6-1.4-0.8-4.9-1.1-1.2-1.2-4.8-0.6-1.1 1.6-5.2-0.3-2.1-0.7-1.1-1.6-3.2-2.4h-0.9l-2.3 3.8-0.6 2.1-1.2 2.2-2 0.7-2.5-0.9-1.6-1.1-4.1 1.8h-2.7l-1.7 1.1-0.9 1.8-4.3-1.3-1.3-1.4-1.9-0.9-1.6 1.1-1.3 1.6-2.5 0.2-0.7 1.9-1.3 2-1.4 1.2-10.5 0.2-1.8 0.9-0.5 2.2-1.3 1.9-1.8 1.1-1.2 1.6-2 1.2-1.2 2-4 2h-4.1l-1.6 1-4.3-0.5-2.5 0.5-1.4 1.5-2 6.2-2.6 2.7-1.8 1.1-5.2 0.2-2.3-0.6-1.5-1.2-2.3 0.3-6.1 5.2-2.5 0.5-2.5-0.3-2.8-1.4-0.4-0.6-1.6-1.4-1 4.3-0.9 1.8-1.5 1.2-0.7 1.6-1.1-0.5v-5.4l-1.6-1.4-4.6-0.9-1.1-1.6-2.3-0.7-1.6 1-3.7 7.5 0.3 6.7-1.2 1.6-4.5 1.2-3.2 3.2-3.8 9.8-6.4 7-4.3 1.4-2.1 0.2-1.8-1.6-2.5-0.5h-5.4l-2.1 0.5-9-3.3-3.9 2.3h-7.6l-0.2 3.8 0.5 0.3 1.8 2 1.2 2.8-0.2 3.5-1.3 2.5-2 1.8-1.5 2.3 1 5.5-0.5 2.3 0.5 2.8-1.3 9.6-1.3 2.5-0.5 3.3-1.5 2.5 1.8 2-1.3 2.5-0.2 2.3 7.3 7.8 2.5 1.3h3.3l2.5-1.3 2.1 0.6v3.2l-1.3 2.6-2 1.7-5.8 1.8z"/>
				<path id="path2907" class="s2" d="m270.3 691.1l-0.2-1.6-1.7-0.6h-3.8l-0.4-1.5 0.2-5.1 3-6.9 1.4 0.1 3.7-1.6 1.2-5 1-1.6-0.2-3.6-0.6-0.8-1.4 1.2-1.3-1-0.8-1.5-0.1-1.9 1-3.2v-1.6l-1.5-0.4 0.1-1.7 2.2-4.2h-1.7l-1.6-0.9-0.4-2 0.8-1.5v-2.1l0.9-1.1 0.5-1.8 0.7-1.3v-1.9l-1.4-0.7-5.7 0.4-1.7-0.6-0.9-1.6 0.4-9 1.6-0.9 3.8 0.1 5.8 2.3h3.8l1.5 2.3h3.8l2.8-1.3 6.3 2.3 3.8 0.5 2.3-1.8 1.7-2.3 0.3-3.5-0.8-3 2-2.1h3.3v3.3l3.6 1.3 1-2.8 4.8-2.8 0.7-3.5 1.8-2 6.3-2.5 2.8 1.5 1.8-6.1 1.5-2.5 4 0.2 2.5-1.2 1.1-3.1 5.8-1.7 1-2.8 2.2-1.8 1.8-2.2 2.8 1.2 2.3 1.8 2.7 1 5.8-2.3h7.6l5.3-2.7 5.1 1.2 1.5 5.1 4.3 3.5 1.5 2.3 2.5 1.5 3.6 0.2 2.2 1.8 3.1 1 13.9 1.5 2.7-1.5 1.8-2 5.6 0.3-0.5 3.7 2 3.3 2-2 3.3-0.8 2 2.1 3-0.3 2.8-1 3.5 0.3 2.8 1.5 3.6 0.5 1.2-2.6v-3.5l-0.7-3-1.6-2.3 1.7-2.4 6.4-0.6 11.6 4.3h3.8l3.3 0.7 1.3 2.6 0.2 8.5-0.7 3.3-2.8 2.3v3.8l1.5 2.5 2.3 2 0.5 7.4 2.5 5.8 2 2.2 11.4 1.3 5.6-2.3 11.1 1 2.7 1 8.6 0.3-1.2 0.3-2.6 1.2-6.5 1-2.3 1.5-6.3 1.3-4.3 3.5-1.5 2.6-2.8 1.2-2.3 1.8-3.3 0.5-2.2 2.5-1.8 4.3-1.8 1.5-1 2.8-1.7 2-0.3 3.6-2.8 1h-3.8l-2 2-1.5 2.5-4 4.1-7.1 0.5-2.3 5.8-5 2.5-1 2.8-6.6 0.5-1.3 6.6-8-0.3-2.3-2-7.9-0.3-1.2 11.6 1.2 2.8 2.1 2.5v3.8l-2.1 1.8-2.5-1.3-6.3 1.3-3-1-3.6-2.5-3.7 5.5-3.1 0.8-3.3-0.3-4.2-3-6.1-1.8-1-2.5 3.3-4.8-0.8-2.5-2-3.3-0.5-2.5 1.2-2.5-1-2.8-0.2-3.6 1.5-2.7 2.3-1.8 0.2-3-1-2.8-3.5-0.3-3.8-1.2-1-2.3 2.5-1.8-0.3-3.3-7.8-0.5v-3.2l2.5-1.8 1.6-2.3-2.1-1.8-2.2 1.3-3.1-0.7-2.5-2.1-3.3-1-1.7-2.2-3.8-1.1-0.3 0.5-2.3 1.6-3.2 0.2-2.1-2-3.2 0.5-5.3 2.5h-7.6l-6.1 3.6-0.2 0.2-1.6 2.5-6.3-0.2 0.3 3-7.1 0.5-0.5 3.3-1.2 2.5-1.8 1.5-2.5-1.5-2.1 2 1 2.8-0.5 1.8-9.6 4.8-0.7 3-3.3 4.8-3 1.3-4.6-1.3-1.2-2v2.8l-2.6-0.3-2.2-2-1-3-3.8-0.8z"/>
				<path id="path2856" class="s2" d="m675.2 655l-2.2 6.8v1.9l-1.4 0.9-1.8 7-0.1 5.8-1.8 3.8 0.2 5.5-1.2 5.6-1.5 1h-1.9l-1.5 0.4-1.3 1-1.1 3.1-0.8 1.3-1.3 1.3-0.7 1.3-0.1 1.7-1.1 1.1-0.4 4.1-1 1.2-2.4 9.7 0.9 1.2 0.5 1.4-0.8 1.2-1.5 1.2-1.4-0.3-0.9-1.4-1.1 0.5 1 1.1 0.1 1.3-2.9 2.1 0.3 7.9 1.9 3.8 0.3 1.8-0.2 3.6-1.4 1.4 0.1 5.4 3 3.2-0.8 2.9-3.7 0.1-1.2 1-2.2 4.2-1.3 0.6-3.8 0.2-0.8 1.1-1.4 0.8v1.9l-0.8 1.2v1.9l-2 2.9-1.4 4.9-1 1.4-0.9 5.7-1.1 1.6-0.3 1.7-1.1 0.8-1 1.1-1 2.9-1 1.6-1.3 5.1-0.8 0.8-0.5 1.6v1.9l-3.2 3.4-0.5 1.4-1.8 0.1-1.1 1-0.9 1.5-0.7 0.3-0.2 3.1-3.4 7.5-2.2 2-2.1 4.4-0.6 3.2-1.2 1-1.5 0.4-2.4 2.5-0.1 3-3.2-0.8-1.4 0.6-3.4 0.5-5.8 4.8-0.7 1.1-0.3 1.6 0.6 1.3 1.8 2 0.4 1.3h-1.9l-0.8 1.3 0.7 1.2 1.2 0.7 1 1.1-0.3 1.8 1.1 2.7-0.5 1.7-2.1 1.9-1.7 0.2-1.4 1.4-1.3 8-2.1 2-2.8 1.1-1.1 1-0.8 1.3-2.5 2-0.7 1.1-1.2 0.8-1.5 0.6-3.8 4.6-2.6 1.5-1.6 0.4-1 0.8-1.3 0.7-1.9 0.3-1 1-1.8 0.1-0.9 1.1-2.4 1.4-1 1-2.7 1.3-0.3 1.5-1 1.2-1.8 0.2-1.1 1-4.1 1.7-1.1 1.1-1.7 2.6-0.9 3.2-1.1 1.2-0.2 1.7-0.9 1.1-0.2 1.8-0.7 1.5 0.1 1.7-0.2 0.6-0.2 5.3-0.7 1.4-0.1 1.4-2 2.8-3.5 3.2-0.9 1.3-1.6 0.9-0.8 1.2-0.2 1.7-0.9 1.2-0.1 1.8-0.7 1.6v1.9l-1.2 0.8v2.5l-2.9 6.8v1.9l-0.9 0.9v3.8l-2.2 4.2 0.2 2.1-1.3 1.7-0.5 3.5-0.9 1.1-0.2 3.5-1 1.3-0.4 1.8-1.9 2.5-0.5 1.4-0.9 1.1-3.6 10.1-0.8 1.3-0.5 5-2.6 2.6-2.9 9.1v3.5l-0.6 1.4 0.3 5.4 1.2 1.7v7.8l0.9 3.1 0.1 4.7-3.5 1.2-2 1.7-3.3 1.3-2.8-4.8-3-0.8h-4.1l-1.2-2.8-2.8-1-2.3-1.5-4.3 0.3-0.5-2.3 0.8-3.3 1.8-1-2.8-1-1-2.5-4.8-2.8 1.7-2.3 2.6-1.2-0.3-7.6-2.5-1.5-1.3-2.6h-2.8l-3.7-4-3.6-1.8 4.8-14.6 6.6-1 1.3-2.8-0.8-3.3-2.8-2-2.5-5.3-4-2.5-0.3-3.1-1-3 4.3-3.3v-3.8l-4.1-8-0.5-4.3-1.7-1-1-3.1 0.5-3.5 2.7-5.1-1.2-2.7 1.5-2.3 1-2.8-0.3-3.5 1.1-2.5 2-2.1 0.7-3 1.8-2 0.3-1 4-5.6 0.3-3.5 1.7-2.3 0.3-2.5 3.3 0.5 3.5-1.8 6.1-1.2 3-6.4 11.1-0.5 2-2.2 0.3-3.6 1.7-2 0.5-9.8 2.1-2.1-1-2.2v-3.8l-1.1-3.3-2.5-1.3-3.3-0.2-2.7-2.5-0.8-1.6-0.8-3v-3.8l0.5-1 0.7-6.7-2.8-4-5.4-0.3-2.9-8.6 0.4-5-1.4-1.4-1.8-4v-5.3l1.1-4.3 10-12.9 0.7-1.7v-4l6.4-4.6-1.4-4.3-2.5-2.5 1.8-4.3 3.5-3.9-1-22.5 3.2-2.2 2.1-5 3.6-1.7-1.1-4v-3.9l1.4-3.9-0.3-1.8-1.1-0.7 2.9-3.6 3.5-1.4 6.8-5.7 5-6.5h4l7.8-2.1 2.9-2.9 8.3-3.5 1 2.5 3.7 4.8-0.2 3.8 3.8 9.1 0.7 0.7 1.3 2.5h4.3l5.3 3.3 3.5 0.3 3.6 4 1.2 2.5 2.8 1.3h1l0.5-1.3 5.3-2.5 5.1 3.3 1.7 2.3 1.3 2.7v4.3l3.8 5.3v2.8l2.5 1.5 3.1 1.1 1.7 2.2 1 0.8 4.6 0.2 2 1.8 1.8 3.3 0.2 3.5 2 0.3 2.6-1.8 9.8-1.5 1-2.8v-11.4l-0.7-3.5 1-2.8 4.3-3.5 3-5.8 0.3-2.8 1.5-2.8v-3.8l2.2-1.7 1.6-6.1 1.2-2.5 2.3-1.5 1.8-2.3 0.5-8.8 12.1-18.5v-0.2l-3.3-1.8-2-2.3-0.5-4.5 0.2-0.3 7.4-13.1 4.2-3.5 2.8-1h3.8l3 0.7 2.3 1.8z"/>
				<path id="path2905" class="s2" d="m420.9 720.9l-1 0.8-2.5-1.3-6.3 1.3-3-1-3.6-2.5-3.7 5.5-3.1 0.8-3.3-0.3-4.3-3-6-1.8-1-2.5 3.3-4.8-0.8-2.5-2-3.3-0.5-2.5 1.2-2.6-1-2.7-0.2-3.6 1.5-2.8 2.3-1.7 0.2-3-1-2.8-3.5-0.3-3.8-1.2-1-2.3 2.5-1.8-0.3-3.3-7.8-0.5v-3.3l2.5-1.7 1.6-2.3-2.1-1.8-2.2 1.3-3.1-0.8-2.5-2-3.3-1-1.7-2.3-3.8-1-0.3 0.5-2.3 1.6-3.2 0.2-2.1-2-3.2 0.5-5.3 2.5h-7.6l-6.1 3.5-0.2 0.3-1.6 2.5-6.3-0.2 0.3 3-7.1 0.5-0.5 3.3-1.3 2.5-1.7 1.5-2.5-1.5-2.1 2 1 2.8-0.5 1.8-9.6 4.8-0.7 3-3.3 4.8-3 1.3-4.6-1.3-1.2-2v2.8l-2.6-0.3-2.2-2-1-3-3.8-0.8-2.8-1.8-0.8-1-7.2-1.2-3.9 6.8 0.7 1.2 1 0.2-0.7 1.8-1.2 1-0.3 1.7 2.8 1.7 1.1 0.2 1.7-0.5-2.2 3.2-3.4 1.2-0.9 1.3 0.3 1.7 0.7 1.6-2.5 2.4-0.4 1.6-0.7 1.4-2.4-0.6-0.7 1.2-0.7 3.4 0.1 3.8-4.9 9.2-0.5 3.6-1.5 2.5 1.1-1.4 1.5-0.6 1.5-0.1 0.7 7.9 1.1 0.9 1.5 0.6-0.9 5.3-3.2 1.4h-0.3l-3.5 1.2-3.2 2.9-3.3 1.5-0.2 3.5 0.2 0.5 0.3 3.7 0.7 0.9h1.9l-0.1 5.9 0.8 2.4 2.1 2.5 0.3 0.8 1.9-0.7 1.2-0.8 1.2-1.2 1.5-2.9 5.5-6.3 3.1-2 19.9-1.8 1 1 0.8 3.1 6.8-0.3 0.5 2.8 3 0.5 2.6-1.3 6.3 2.8 1.5 2.5-2 2.6-3.3 1.2-5.3 7.6 3.8 2.5 7.3 9.4-3.3 8.3h-3.8l-2.8 1.3-0.2 3.5-2.8 0.5-4.4 8.3 8.4 3.1 2.6-1.3 1.7 1 3.8 4h3.6l0.5-0.7 2.7 1.3 2.1 0.2 1.5-2 17.9 4 3.8-0.2 6.3-5.8 1.8-2.6 3-1 3.6-0.2 2.5 1.5h3l1.5-6.3 1.5-0.8 1-1.2 0.6-3.3 3.7-8.9 3.1-0.7 1-3.1 0.2-3.5 5.6-0.2 0.2-3.6 9.1-6.5 3.6-5.6 10.3-7.1 2.3-2.5 3.8-2.3 0.5-3 0.2-0.2 1.3-0.8 0.5-3.5 1.3-2.6 0.2-3.5 5.6-6.8 1.8-0.3 8-10.8 0.3-3.8 4-5.1 0.8-3-2.3-1.8z"/>
				<path id="path2891" class="s2" d="m420.9 721l0.3 0.4 2.3 1.8-0.8 3-4 5.1-0.3 3.8-8 10.8-1.8 0.3-5.6 6.8-0.2 3.5-1.3 2.6-0.5 3.5-1.3 0.8-0.2 0.2-0.5 3-16.4 11.9-3.6 5.6-9.1 6.5-0.2 3.6-5.6 0.2-0.2 3.6-1 3-3.1 0.7-3.7 8.9-0.6 3.3-1 1.2-1.5 0.8-1.5 6.3h-3l-2.6-1.5-3.5 0.2-3 1-8.1 8.4-3.8 0.2-10.1-3.3-7.8-0.7-1.5 2-2.1-0.2-2.7-1.3-0.5 0.8h-3.6l-3.8-4.1-1.7-1-2.6 1.3-8.4-3.2-1.7 0.6-3.2 3 1.2 1.5 0.8 4.1 3 6.4v1.8h0.7l0.2-1.6 0.6-1.3 1.9-0.1 2.2 5.1-0.3 1.6-1.9 0.2-1.4-0.8-0.7-1.3-0.4 0.9 0.1 1.8 0.8 2.2 0.1 1.8 1.8 3.4v1.4l8.9 21.1 0.2 1.8 1.5 3.4 1.4 1.7 3.1 6.6 2.8-2.9 8.2-2.2 3.2 2.2 2.2-1.5 3.9-0.7 1.1-4.3 1.4-1.7 2.2 5-0.8 4.6-2.1 3.2-1.1 4.3-2.8 1.8 2.1 3.9 4.7 4.3-1.8 3.6v1l4.6 2.5-1.8 7.5-1.4 2.9-3.2 1.1 0.7 1.8 2.9 0.3v1.8l-4.7 1.4v3.6l4.7-0.4 4.6 0.8 5-0.4 2.5 1.4 3.2 4 1.8 3.5v5l-8.9 8.6-1.5 3.3 6.8 5.6 1.8 0.7 2.8 2.6 5.4 1.6 0.3-0.6-0.9-14.6 0.9-2.9 0.8-1.1 1.9 0.4 2.4-2.2 2.1-5.8 0.2-3.5 1.8-6.1v-3.8l-3.5-4.3 0.2-18.1 2-6.1 1.8-2.3 1.8-6.8-0.3-4.5 0.8-1.3-0.3-15.2 1.3-2.7 0.5-3.3 1.3-2.5 1.5-9.9 2.5-1.2 1.8 0.7 4.5 0.3 1.5 2.2h3.8l2.8-1.2 6 1.5 3.6-0.3 2.3-1.7 2.5-3.3 0.2-1.3 4.1-3.3 1.2-0.5 6.6-4.5 3.5-0.3 2.8-2 3-0.7 3.1 1.2 1.7 2v3.8l2.8 1.3h2.8l1-1 3-0.8 3.3-4.8 3.1-0.7h3.7l8.6 5.3 6.3 7.5 2.8 1.6 2.8-1.6 1.8-2.2 5-2.6 1.5-2.2h3.3l1 0.2 2.5 1.3 0.3 1.3 2.3-0.8 4.5 3 0.7-6.7-2.9-4-5.3-0.3-2.9-8.6 0.4-5-1.5-1.4-1.7-3.9v-5.4l1-4.3 10-12.8 0.7-1.8v-3.9l6.5-4.7-1.5-4.3-2.5-2.5 1.8-4.3 3.6-3.9-1.1-22.5 3.2-2.1 2.2-5 3.6-1.8-1.1-4v-3.9l1.4-3.9-0.3-1.8-1.1-0.7 2.8-3.6 3.6-1.4 6.8-5.7 5-6.5h3.9l7.9-2.1 2.8-2.9 8.5-3.5 0.8-3.1-0.2-3.5-15.4-10.6-3.1-0.8 1-3.5 1.8-2.5 3.3-1-0.5-2.3 1.5-2.3 3.3-0.5 1.5-2.2v-7.1l-2.3-1.5-0.6-1.8-0.9-0.3-1.2-6.3-2.6-1.7h-0.5l-9.8-2.8-1 0.2-2.6 1.3-6.5 1-2.3 1.5-6.3 1.3-4.3 3.5-1.5 2.6-2.8 1.2-2.3 1.8-3.2 0.5-2.3 2.5-1.8 4.3-1.8 1.5-1 2.8-1.7 2-0.3 3.6-2.8 1h-3.8l-2 2-1.5 2.5-4 4.1-7.1 0.5-2.3 5.8-5 2.5-1 2.8-6.6 0.5-1.3 6.5-8-0.2-2.3-2-7.8-0.3-1.3 11.6 1.3 2.8 2 2.5v3.8z"/>
				<path id="path2887" class="s2" d="m333.3 955.4l-1.5-0.7-3.9-3.3-0.6-1.4-2.3-2.5-1.4-0.8-3.3-3.5-0.6-0.2-3.3 0.2-1.6-0.4v-0.6l0.5-0.7 2.6-0.5-2.7-4.5-1-1-0.7-1.4-1-1.1-1.1-0.8-1.3-1.8-0.6-1.4-2.7-2.6-1.2-3.4-1.6-0.8-0.7-1.1 1.1-0.8 0.1-1.9-0.8-1v-1.9l-0.9-1.4-2.8-2.5-0.5-1.8 0.5-1.6 0.2-4.2 4.1-3.9-2.5-6.1 3.9 4 2.1-2.5-4.5-5.6-1.7-3.8 2.8-2.9 8.2-2.2 3.3 2.2 2.1-1.4 3.9-0.8 1.1-4.2 1.4-1.8 2.2 5-0.7 4.6-2.2 3.2-1.1 4.3-2.8 1.8 2.1 3.9 4.7 4.3-1.8 3.6v1.1l4.6 2.5-1.8 7.5-1.4 2.8-3.2 1.1 0.7 1.8 2.9 0.3v1.8l-4.7 1.4v3.6l4.7-0.3 4.6 0.7 5-0.4 2.5 1.4 3.2 4 1.8 3.5v5l-8.9 8.6z"/>
				<path id="path2899" class="s2" d="m246.9 777.7l0.3 1.6-0.2 1.7 4.6 2.8 0.9 0.3 1.8 1.6 3.1 1.7 4 4.1 1.5 0.8 5.3 4.9 0.1 0.5 3.4 3.3 2.4 3.6 1.6-0.3 2.3-2.2 1.4-0.7-1 2.1-0.9 1.1v1.3l3.3 0.9-1.7 1.4-1.8-0.1-1.1-1.4-0.8-0.5 0.7 1.9 1.2 1.5 0.5 1.6-0.5 9.6-0.6 1.4 1.1 2 1.2-0.7 2.1-2.1 1.5-0.5 4.5-8.3 2.8-0.5 0.2-3.5 2.8-1.3h3.8l3.3-8.3-7.3-9.4-3.8-2.5 5.3-7.6 3.3-1.2 2-2.6-1.5-2.5-6.3-2.8-2.6 1.3-3-0.5-0.5-2.8-6.8 0.3-0.8-3.1-1-1-19.9 1.8-3.1 2-5.5 6.3z"/>
			</g>
			<g id="g109">
				<g id="g2467">
					<path id="path4308" fill-rule="evenodd" class="s3" d="m343.3 632.6l0.5 3.3 3.1 3-2.1 4.5 10.1 1.6 1.1 2.7 2 2.8 2.5 1.3 2.5-1.5 1.3-2.6 4.5-3.5 2.1 1.8 4.5 1.5 0.8-2.5 3.5-4.3-2-2.1-0.8-3-3-0.7-1.3-2.6-2.3-1.5-2.7 1-2-1.7-1.8-2.6-2.5-1.2-3.1 0.7-7 5.1-3.1-0.8z"/>
					<g id="g2445">
						<path id="path4311" fill-rule="evenodd" class="s3" d="m670.4 94.2l-1.3 2.7-1.2 1.2-0.4 0.7-1.2 1.5v2.6l-1.8 1.1-0.4 2.3 0.7 2.3 1.8 1.3 5.7 0.7 3.6 3.4 1.4 2.7 0.2 8.2-2.7 3.8-1.8 1.6-0.9 1.9 0.6 5.2 1.1 2.1 2.1-0.1 2-1.1 1.2-1.8 1.3-0.2 2.8 1.3 1.6 1.2 0.7 2v2.7l1.3 2.1 2.3 1.6 2.5 0.2 1.1 4.3 3.7 2.5 10 1.1 2.2-0.9h2.8l0.2-1.8-4.8-2.3-0.4-2.5 0.2-2.2-1.2-4.1v-2.3l1.2-2 1.8-1.1 5 0.4 1.6-1.1 2.1-0.5 6.8 0.4 0.6-1.5-1.6-0.7-2.4 0.7-3.9-1.8-4.8-3.5-0.9-2 1.2-1.6-0.3-2-1.4-1.4 1-1.2 2.4-4.9-0.6-4.6-7.7-6.6 0.6-2.3 1.4-1.6-0.5-1.8-2.9-2.5-1.1-1.6-0.1-5.2-2.9-2.9v-2.6l0.7-2v-2.7l-4.6 0.4-2-3.6-1.4-1.6-2.5 3.9-2 0.9-0.9 2-3.7 2.1-0.9 2.3-1.6 1.1-2.5 0.2-2 0.9-3 3.6-0.9 2.3z"/>
						<path id="path2533" fill-rule="evenodd" class="s3" d="m738.2 85.4l-4.1 1.8-1.1 1.6-2.3 0.6-1.2 1.6-4.1 1.8-2.5 0.1-2 0.7-1.8 1.3-4.8 0.5v2.7l1.1 2 2.3 0.7 1.4 1.6 0.2 2.5 3 6.8 2.3 1.6 1.7 2.1 2.3 0.6 1.4-1.3v2l1.6 1.8 7 1.8 5.3 4.6 5.2 0.4 4.7-2.4 2.5-0.1 1-1.8 0.7-2.2-4.6-4.4v-4.9l-0.5-2.1 2.3-0.5 2.8-3.1 2.5 0.6 1.8 1.2 0.9 0.2 1.8-2.9 1.4-1.4 0.9-2.1v-1.3"/>
						<path id="path2535" fill-rule="evenodd" class="s3" d="m611 105.6l2.8 3 1.2 0.4 1.3 1.6 5 0.5 9.2 4.5-0.5 3.6 2 1.8 5.1 1.2h5.4l1.3 0.9 1.7 2.2 0.6 2.3v0.7l-0.9 1.8 0.3 2.3 1.3 1.4 2.3 1.6-0.9 1.6-1.9 1.3-2 0.7 2.1 1.6 0.2 2.2-1.6 1-2.1 0.7-2 3.6-2.9 2-11.2-0.4-1.8 0.9-0.5 2.2 1 1.9-0.5 5-1.4 1.4-0.9 2 1.2 2.3 2.2 0.2 1.6 1.3-2.2 1.4-1.2 1.4-0.9 2 0.9 4.3 4.5 2.6 3.3 5.2-1.2 1.6 0.4 2.2 2.6 1.8-1.6 1.2-4.6 0.9-0.2 2.2 2.5 0.3 1.6-1.2 1.6 1.6 1.8 1 2.9 0.7 2.6-0.1 2-1.1 5.4-0.4 1.2 0.8 0.4 0.9 1.4 1.4 0.7 1.9 2.9 2.9 1.6 0.9 1.6 1.8 0.2 2.5 0.8 2.5 2.4 0.7v2.7l-1.6 1-1.1 1.7-3.2 2.6-1.1 2 0.4 2.3 0.9 1.8v1.1l1.9 5 3.2 3-0.5 2 2.5 1 0.2 1.8 2.5 0.7 1.4 2 2 1.4 0.5 5 2 0.8 4.3 0.1 2.3-1.4 4.6-0.7 5.2-3.4 0.5-2.5 5.9-3.2 2.7-0.2 2.2-0.7 1-1.6 1.6-1.3 2.4-0.3 1.4-4.3v-2.7l-0.7-2.1-1.5-1.5-0.3-2.5 1.9-1.6 0.4-2.3-0.2-2.5 0.9-2 2.2-0.5 1.7-1.1 2.5 0.8 2.4-1.8 0.5-2.2-1.4-1.2 10.5-1.3 3.6-1.8 1.6 1.8 0.7-1.9 2.1-0.8 1.1-1.7 1.8-1.6 0.5-1.7 4.9-2.6 2.6-3.2 2-1.1 2.3-0.4 7.5 1.1 1.8-0.9 2.5-0.5-0.2-1.3 0.2-2.1 1.4-1.8 0.2-2.2-0.5-2.3 2.5-3.2 3-2.5 2.3-0.3 5.4 0.3 5.9-3.9 1.4-4.3-4.1-5.9 0.9-1.8 0.5-2.1 1.8-1.5 5.2 0.4 2.3 0.9h2.9l6.2-5.4 2-1 5.3-0.4 6.3-2.3 2.5-0.2 3.4 0.8"/>
						<path id="path2409" fill-rule="evenodd" class="s3" d="m523.1 162.9l3.1 0.7 4.3-2.5 2.2 1.5 4.3-1.3 3.7 0.3 2.1 2.1 1.8 0.2 0.1 1.7 1.2 3.1-0.7 1.5-0.1 3.6 3 1.2 1.3 1.4h1.9l2 0.6 1.7 1.3 1.8-0.2 1.7-0.6 1.3-0.9 1.3 0.8-1 0.9 0.3 1.9 0.7 1.5 11.8 1 1.4 1 0.5 5.6-1.8 2.7-0.4 1.7 3.1 1.9 0.6 0.9 3.5 2.7 1.8 0.7 1.9 0.2v1.4l2 0.8 8.2 6.3h1.7l3.9-1.8 1.5 0.5v1.9l2.1 0.4 1.6 0.6 0.8 2.4 0.2 1.2 0.3 0.6 1.6 0.9 1 1.2 1.6 0.9h0.3l0.5 0.8 1.7 0.1 1.4 0.5 1.3 1.3 1.8 0.4 0.6 1.5 1.3 1.2-0.4 1.7-0.9 1.2-0.5 1.4-0.1 4.4 2.1 0.4v3.8l-0.6 1.3-1.2 1.1v3.8l1.4 0.5 3.1-1 2.9 1.4 2.2 2.9 1.2 0.9 0.7 1.2 0.3 1.8 0.6 1.3h1.9l1.7 0.7 0.2 1.9-0.5 1.5-0.1 1.9-1 1 0.1 3.8 1.3 0.8 1.6 0.2 1.5 0.8-0.4 1.8-0.7 1.4v3.9l1.4 0.5 0.5 1.5 0.7 1h0.9l1.3 1.9 1.5 0.9 3.7 0.5 1.7-0.4 1.2-0.9 1.1-1.5 1.1-0.9 1.4-0.6h1.8l0.2-1.6 3.5-5.4 0.3-1.5 0.7-1.2 0.3-1.5 2.3-3.1 0.6-5 1.8-2.4 1.3-0.8 3.5-0.2 1.7-0.5 0.5-1.2"/>
						<path id="path2411" fill-rule="evenodd" class="s3" d="m508.4 191.3l1.6 1.1 0.5 1.4 1.9 2.6 7.7 1.9h1.9l1.4 0.9 0.5 1 0.1 0.7 3.7 0.3 3.4 3 1.9 2.6 3.3 11.1v3.8l-1.5 1-7.1-7.2h-1.9l-1.5 0.5-1.2 1.8 0.5 1.4-5.4 1.2-0.9 1.4-0.5 1.5-1.1 0.9-1.5 0.7-1 1.5-1.7 0.4-1.2 2.9-0.4 3.6-2 2.4-1.6 0.4-4-1.1v-1.5l-0.5-1.7-1.9-2.3-1.4-0.5-1.1 0.9-1.4 0.5h-2l-1.3-0.6-0.3-1.1"/>
						<path id="path2413" fill-rule="evenodd" class="s3" d="m507.3 236.1l1.1 1.5 1.5 0.8h2.9l0.9 1.1 1.5-0.6 1.2-1 3.6-0.3-0.9 1.1 1.4 0.8-1 1.3-0.3 1.6-0.9 1.4-0.3 1.3 2 0.7 0.2 1.8 1.7 2.9 1.4 1.4 0.8 1.5 3.3 2.1 1.8 0.3 1.1 1.3 0.2 1.7 1.7 0.8 1.8 0.2 2 3.2 1.3 0.9 1.6 0.4 0.9 1.5 2.4 1.9 1.5-0.9 2-0.5 0.9 0.4 1.4 3.1 1.9 0.5 1.1 3.4 1.4 0.8-0.3 1.6-0.9 1.3-0.2 1.8-1.1 1.4-1.1 4.1-2 3.3 2.6 2.2 1.5 2.9 0.1 1.8-0.5 1.6-2.1 2.2-0.8 1.6v2l0.9 1.9v2.1h6l3.4 0.8 3.4-1.4 2.1-1.9h1.9l1.5 0.4 1.4-0.5 7.6 0.3 1.3 1.2h1.9l1.3-0.8h4.3l2.7-1.7 1.5-0.6 3.7 0.3 1.1 1.5-0.2 2.9 0.5 1.3 1.6 0.9 0.8 1.1 1.5 0.8 0.6 1.5 2.2 2.4 0.6 1.5 1.1 1.3 1.5 0.8 0.9 1.3v3.8l0.7 0.7-0.3 1.3 0.1 2.2 0.9 1 5.7 0.1 1.3-0.6 5.8 0.1 1.2-0.8 0.7-1.4 1.5-0.6 0.9-1.1 0.1-1.8 1.3-2.5 1.5-1.3 1.5-2.4 0.5-1.6 1.4-0.8 1.4-2.8 1.9 0.4 1.2-0.7 3.4-5 1.4 0.2 0.5-1.3 1.8-1.4 1.6-2.5 1.4-1 1.2-1.4 0.7-1.8-0.1-7.3-0.6-1.3 0.3-1.6 1.4-1.5 1.3-0.8 0.5-0.7 0.5-0.3 1.3-1.1-0.5-1.4-0.2-1.8-0.6-1.4-1.1-0.7v-0.8"/>
						<path id="path2412" fill-rule="evenodd" class="s3" d="m415.9 324.7l3.7 4.8 0.4 2 2.3 3.8 4.5 1.7 0.9 1.8h0.3l7.5 9.7 3.3 2.1 1.2 1.8 3 0.4 0.9 0.3 1.3 1.6 2.1 0.7 1.5 1.6 3.5 2 1.5 2 2.5 0.7 3.3 2.8 11.3 2.2 1.6 1.2 1.1 2 3.2 3 5.2 1.6h5.3l2-0.9 10.3 0.4 2.2-0.7 1.8-1.4 0.9-2-0.4-5-0.9-2v-2.6l1.4-1.5 2.2-0.9 4.8 0.2 6.1 2.2 5 0.3 1.9 0.9h2.7l1.6-0.4 2.7 4 1.8 1.2 0.4 2.5 3.2 3.1 1.9 1 2.7-0.1 5.4-6.8 4.4-1.6 5 0.5 2.2-0.5 3.4-2.9 2.1-0.5 0.4-2.5 1.9-2.2 0.8-0.2 0.7-1.9 1.8-1.3h5.3l2-0.7 4.8-6.8 2.3-0.7 1.3-1.8 0.7-2.1 1.9-0.9 2.7 1.1-0.9 1.4 1.8 2.5h2.7l2.1-0.5v-2.7l3.4-5.6 0.2-2.5 1.4-1.7 2-1.6 1.8-0.9v-0.9"/>
						<path id="path2414" fill-rule="evenodd" class="s3" d="m374.5 404.2l4.4 1.9 2.2 3.4 0.3 2.4 1.1 2.6 0.4 2.7 3.2 3.4-1.3 1.6-0.2 2.5 1.3 1.6 1.8 1.3h0.5l1.4 2.3 2 0.9 1.6 1.2 2.2 0.6 1.9 1.1 10.2 2.3h2.5l1.6 1.2 0.4 0.9v5.4l1.6 2.1 1.8 1.4v2.9l-0.9 2 1.4 6.9 2.5 0.2 1.6 1.4 3.6-0.3 1-0.7 5.8 4.8 8.9 3.2 2.1-0.5h5.4l2.5 0.5 1.8 1.6 2.1-0.2 4.3-1.4 6.4-7 3.8-9.8 3.2-3.2 4.5-1.2 1.2-1.7-0.4-6.6 3.8-7.5 1.6-1 2.3 0.7 1.1 1.6 4.6 0.9 1.6 1.4v5.4l1.1 0.5 0.7-1.6 1.5-1.3 0.9-1.7 1-4.3 1.6 1.4 0.4 0.5 2.8 1.5 2.5 0.3 2.5-0.5 6.1-5.2 2.3-0.3 1.5 1.2 2.3 0.5 5.2-0.1 1.8-1.1 2.6-2.7 2-6.2 1.4-1.5 2.5-0.5 4.3 0.5 1.6-1h4.1l4-2 1.2-2 2-1.2 1.2-1.6 1.8-1.1 1.3-2 0.5-2.1 1.8-0.9 10.5-0.2 1.4-1.2 1.3-2 0.7-2 2.5-0.1 1.3-1.6 1.6-1.1 1.9 0.9 1.3 1.4 4.3 1.3 0.9-1.8 1.7-1.1h2.7l4.1-1.8 1.6 1.1 2.5 0.9 2-0.7 1.2-2.2 0.6-2.1 2.3-3.8h0.9l3.2 2.4 1.1 1.6 4.6 1h2.7l1.1-1.6 4.8 0.6 1.2 1.2 6.5 1.8 1.8-1.4 0.9-1.8-0.2-2.5 3.7-1.6 1.1-1.6 2.7 0.1 1.4-1.2 0.5-2.3-0.9-4.7 1.3-1.9 2.3-0.9 1.6-1.1 1.8-4.1 1.4-1.6h2.7l1.8-1.3 1.4-1.7 2.2-4.3 0.7-7.4 0.9-1.9 2.3-1.3 1.3-1.9-1.3-1.6-1.6-1.1-1.1-1.8-2.1-1.1-7.2 0.9-1.7 0.9-2.4 0.4-1.6 1.2-1.2 1.6-2.7 0.4-1.8-0.9-4.1-7h-4.8l-2-0.7-2.7-2.7 0.9-7.1-0.5-2.1-0.9-1.8-2-2"/>
						<path id="path2415" fill-rule="evenodd" class="s3" d="m304.9 522.7l6.4 2.3 3.7 0.3 5.9 1.7 16.1-0.7 2.8-1 14.6 0.2 2.6-1.3 5 2.8 0.8 1.3 4.3 0.5 8 4 6.4 1.5 7.3-0.2 3-0.8 30.6 5.1 5.8-1.8 2-1.8 1.3-2.5v-3.3l-2.1-0.5-2.5 1.3h-3.3l-2.5-1.3-7.3-7.8 0.2-2.3 1.3-2.5-1.8-2 1.5-2.5 0.6-3.3 1.2-2.5 1.3-9.6-0.5-2.8 0.5-2.3-1-5.5 1.5-2.3 2-1.8 1.3-2.5 0.2-3.5-1.2-2.8-1.8-2-0.5-0.3 0.2-3.8h7.6l2.5-1.2 1.6-1.3"/>
						<path id="path4321" fill-rule="evenodd" class="s3" d="m407.7 398.7l-2 7.1v3.8l-5 10.3 1.7 3.1 2.8 1 3.5 4.5 2.8 1 2 1.8 3.1 0.8 5.8-1 1.2 3.2 3.3-0.2 1.8-2 2.5-1.3 6.3-1.5 2.5-1.3 0.8-3v-3.3l-2.8-1-1.7-2.3 2.2-1.5 3.3 0.5 2.8 1.3h7.1l6.3-1.5 1.7-2.1h7.6l0.3-11.1-2.3-1.5-2.8-1-4.3-3.3h-3.5l-4 4.8-2.3 1.5-6.1 1.8-3.5 0.3-2.5-1.3-1.6-2.3h-7l-2.3-1.5h-3l-2.6 1.8-5.5-1.8-2.8-1.8z"/>
						<path id="path2419" fill-rule="evenodd" class="s3" d="m264 623.7l3.8 0.3 5.8 2.3h3.8l1.5 2.2h3.8l2.8-1.2 6.3 2.2 3.8 0.6 2.3-1.8 1.7-2.3 0.3-3.5-0.8-3.1 2.1-2h3.2v3.3l3.6 1.3 1-2.8 4.8-2.8 0.7-3.5 1.8-2 6.3-2.6 2.8 1.6 1.8-6.1 1.5-2.5 4 0.2 2.5-1.2 1.1-3.1 5.8-1.7 1-2.8 2.2-1.8 1.8-2.3 2.8 1.3 2.3 1.8 2.7 1 5.9-2.3h7.5l5.3-2.8 5.1 1.3 1.5 5 4.3 3.6 1.5 2.3 2.5 1.5 3.6 0.2 2.2 1.8 3.1 1 13.9 1.5 2.7-1.5 1.8-2 5.6 0.2-0.5 3.8 2 3.3 2-2 3.3-0.8 2 2 3-0.2 2.8-1 3.5 0.2 2.8 1.6 3.6 0.5 1.2-2.6v-3.5l-0.7-3-1.6-2.3 1.6-2.3v-3l-2.3-2-3.3-0.5-1 2.7-2.8 0.5-3.3-0.7-0.7 3-3 0.5-3.6-0.2-2.3-1.5-1.5-2.8-0.7-3-4.8 3.5-0.3-7.3 2-5.8 0.3-0.3 1.8-4 0.5-3.3-0.3-3.6-1.5-2.5-0.3-7.3 0.8-3 2.8 0.5 0.5-7.1-5.1-10.9h-1.2"/>
						<path id="path2423" fill-rule="evenodd" class="s3" d="m758.5 366.9l-3.8-0.5-8.1-4-7.3-0.5-11.4-5.3-2.2-2.1-4.8-1.5-4.3-3.8-2 0.8-0.3 3.3 2 1.7 0.8 1.6-2 1.7-2.3-1-2.3 1.5-3.3 0.8-0.7 3 3 2.5-3 0.8-8.4-1-8-5.6-4.1-0.5-3-1.2h-8.1l-12.4-7.6"/>
						<path id="path4325" fill-rule="evenodd" class="s3" d="m629.7 395.4l2 6.1-1.5 2.3h-3.8l-3.8 3.8-2.7 1.2-2.1 1.8-3 0.8-2.8 6.5 0.3 6.3 0.7 1 3.8 1.3 1.8 2 1 2.8 3.5 0.5 1.6 2.3-0.3 3.5-0.8 2.5-2 3.6-2.5 1.2-1.5 2.6-2.5 1.2-2.3 2.3-0.3 7.3-6 12.9v3.5l1 0.3 2 2.5v7.6l-0.8 2v3.8l1.1 3.3 0.2 3-4.3 3.8 1.8 3 0.5 5.6-3 0.7-2.3 2.3-0.3 3.8-2 2.5-1 3.1-0.2 3.7-1.1 3.3-2.2 1.5-0.5 3.6 0.7 3v1.5l-3 2.3-3.3 0.8-0.2 3.5 8 5.8-0.7 2.8 0.2 3.5 2.6 2.3v9.3l-2.1 5.6v3.8l-1.2 2.5-1.3 10.4-3.8 8.3-4.5 0.2-3.3 1.6-1.5 2.2-2.8 1.3-3.8-1-2.5 1.2 2.3 6.4-2.3 1.5-0.8 3v7.6l-4.8 4-3-0.7-2.5-1.6-1.3 0.6h-3.8l-2.8 1.2-3.5-0.2-2.3 1.5-0.7 3-2.3 1.5-2 2.3-0.8 3.3-1.7 2 2.2 1.8 1 3-0.7 3.5-3 0.8-3.1 2-3 0.8-1.3 1.2-1-0.5-1.2-6.3-2.6-1.8h-0.5l-6.3-2.2-11.8-0.8-2.8-1-11.1-1-5.6 2.3-11.4-1.3-2-2.3-2.5-5.8-0.5-7.3-2.3-2-1.5-2.5v-3.8l2.8-2.3 0.7-3.3-0.2-8.6-1.3-2.5-3.3-0.8h-3.7l-11.7-4.2-6.3 0.5"/>
						<path id="path2427" fill-rule="evenodd" class="s3" d="m270.6 691.4l2.8 1.8 3.8 0.7 1 3.1 2.2 2 2.6 0.3v-2.8l1.2 2 4.6 1.3 3-1.3 3.3-4.8 0.7-3 9.6-4.8 0.5-1.8-1-2.8 2.1-2 2.5 1.5 1.8-1.5 1.2-2.5 0.5-3.3 7.1-0.5-0.3-3 6.4 0.2 1.5-2.5 0.2-0.3 6.1-3.5h7.6l5.3-2.5 3.2-0.5 2.1 2 3.2-0.3 2.3-1.5 0.3-0.5 3.8 1 1.7 2.3 3.3 1 2.5 2 3.1 0.8 2.2-1.3 2.1 1.8-1.6 2.3-2.5 1.7v3.3l7.8 0.5 0.3 3.3-2.5 1.8 1 2.2 3.8 1.3 3.5 0.3 1 2.7-0.2 3.1-2.3 1.7-1.5 2.8 0.2 3.6 1 2.7-1.2 2.6 0.5 2.5 2 3.3 0.8 2.5-3.3 4.8 1 2.5 6.1 1.8 4.2 3 3.3 0.3 3.1-0.8 3.7-5.6 3.6 2.6 3 1 6.3-1.3 2.6 1.3 2-1.8v-3.8l-2-2.5-1.3-2.8 1.3-11.6 7.8 0.3 2.3 2 8 0.2 1.3-6.5 6.6-0.5 1-2.8 2.8-1 2.2-1.5 2.3-5.9 7.1-0.5 4-4 1.5-2.5 2-2h3.8l2.8-1.1 0.3-3.5 1.7-2 1-2.8 1.8-1.5 1.8-4.3 2.2-2.5 3.3-0.5 2.3-1.8 2.8-1.3 1.5-2.5 4.3-3.5 6.3-1.3 2.3-1.5 6.5-1 3.3-1.5"/>
						<path id="path2429" fill-rule="evenodd" class="s3" d="m247.4 777.8l1.5-2.8 5.5-6.3 3.1-2 19.9-1.8 1 1 0.8 3.1 6.8-0.3 0.5 2.8 3 0.5 2.6-1.3 6.3 2.8 1.5 2.5-2 2.5-3.3 1.3-5.3 7.6 3.8 2.5 7.3 9.4-3.3 8.3h-3.8l-2.8 1.3-0.2 3.5-2.8 0.5-3.5 6.8-5.6 4.8"/>
						<path id="path2431" fill-rule="evenodd" class="s3" d="m675.7 655.3l-3.3-1-2.3-1.8-3-0.7h-3.8l-2.8 1-4.3 3.5-7.3 13.2-0.3 0.2 0.6 4.6 2 2.2 3.3 1.8v0.2l-12.2 18.5-0.5 8.8-1.7 2.3-2.3 1.5-1.3 2.5-1.5 6.1-2.3 1.8v3.7l-1.5 2.8-0.2 2.8-3.1 5.8-4.3 3.5-1 2.8 0.8 3.6v11.3l-1 2.8-9.9 1.5-2.5 1.8-2-0.3-0.3-3.5-1.7-3.3-2.1-1.8-4.5-0.2-1-0.8-1.8-2.2-3-1-2.5-1.6v-2.7l-3.8-5.3v-4.3l-1.3-2.8-1.8-2.3-5-3.3-5.3 2.6-0.5 1.2h-1l-2.8-1.2-1.3-2.6-3.5-4-3.5-0.3-5.3-3.2h-4.3l-1.3-2.6-0.8-0.7-3.7-9.1 0.2-3.8-3.8-4.8-0.7-2.5 0.7-3.1-0.2-3.5-15.4-10.6-3.1-0.8 1-3.5 1.8-2.5 3.3-1-0.5-2.3 1.5-2.3 3.3-0.5 1.5-2.3v-7l-2.3-1.5-0.5-1.8"/>
						<path id="path2433" fill-rule="evenodd" class="s3" d="m283.2 821l8.4 3.3 2.5-1.3 1.7 1 3.8 4h3.6l0.5-0.7 2.8 1.3 2 0.2 1.5-2 17.9 4 3.8-0.2 6.3-5.8 1.8-2.6 3-1 3.6-0.2 2.5 1.5h3l1.5-6.3 1.5-0.8 1.1-1.2 0.5-3.3 3.7-8.9 3.1-0.7 1-3.1 0.2-3.5 5.6-0.2 0.2-3.6 9.1-6.5 3.6-5.6 10.3-7.1 2.3-2.5 3.8-2.3 0.5-3 0.2-0.2 1.3-0.8 0.5-3.5 1.3-2.6 0.2-3.5 5.6-6.8 1.8-0.3 8-10.8 0.3-3.8 4-5.1 0.8-3-3-2.3"/>
						<path id="path2435" fill-rule="evenodd" class="s3" d="m302 886.3l2.8-2.8 8.2-2.2 3.3 2.2 2.1-1.5 3.9-0.7 1.1-4.3 1.4-1.7 2.2 5-0.7 4.6-2.2 3.2-1.1 4.3-2.8 1.8 2.1 3.9 4.7 4.3-1.8 3.6v1l4.6 2.5-1.8 7.5-1.4 2.9-3.2 1.1 0.7 1.8 2.9 0.3v1.8l-4.7 1.4v3.6l4.7-0.4 4.6 0.8 5-0.4 2.5 1.4 3.2 4 1.8 3.5v5l-8.9 8.6-1.4 3.3"/>
						<path id="path2441" fill-rule="evenodd" class="s3" d="m353.7 947.5l2.3-2.3 2-5.8 0.2-3.5 1.8-6.1v-3.8l-3.5-4.3 0.2-18.1 2-6.1 1.8-2.3 1.8-6.8-0.3-4.5 0.8-1.3-0.3-15.2 1.3-2.7 0.5-3.3 1.3-2.5 1.5-9.9 2.5-1.3 1.8 0.8 4.5 0.3 1.5 2.2h3.8l2.8-1.2 6.1 1.5 3.5-0.3 2.3-1.7 2.5-3.3 0.2-1.3 4.1-3.3 1.2-0.5 6.6-4.5 3.5-0.3 2.8-2 3-0.8 3.1 1.3 1.7 2v3.8l2.8 1.3h2.8l1-1 3-0.8 3.3-4.8 3.1-0.7h3.7l8.6 5.3 6.3 7.5 2.8 1.6 2.8-1.6 1.8-2.2 5-2.6 1.5-2.2h3.3l1 0.2 2.5 1.3 0.3 1.2 2.3-0.7 3.8 2.5 1 8.3 0.7 1.6 2.8 2.5 3.3 0.2 2.5 1.3 1 3.3v3.8l1 2.2-2 2.1-0.5 9.8-1.8 2-0.2 3.6-2 2.2-11.1 0.6-3.1 6.3-6 1.2-3.6 1.8-3.3-0.5-0.2 2.5-1.8 2.3-0.2 3.5-4.1 5.6-0.2 1-1.8 2-0.7 3-2.1 2.1-1 2.5 0.3 3.5-1 2.8-1.6 2.3 1.3 2.7-2.8 5.1-0.5 3.5 1 3.1 1.8 1 0.5 4.3 4.1 8v3.8l-4.3 3.3 1 3.1 0.2 3 4.1 2.5 2.5 5.3 2.8 2 0.7 3.3-1.2 2.8-6.6 1-4.8 14.6 3.5 1.8 3.8 4.1h2.8l1.3 2.5 2.5 1.5 0.2 7.6-2.5 1.2-1.8 2.3 4.8 2.8 1.1 2.5 2.7 1-1.7 1-0.8 3.3 0.5 2.3 4.3-0.3 2.3 1.6 2.8 1 1.2 2.7h4.1l3 0.8 2.8 4.8 3.2-1.3 2.1-1.7 3-1"/>
						<path id="path2443" fill-rule="evenodd" class="s3" d="m541.3 696l-8.3 3.5-2.8 2.9-7.9 2.1h-3.9l-5 6.5-6.8 5.7-3.6 1.4-2.8 3.6 1.1 0.7 0.3 1.8-1.4 3.9v3.9l1.1 4-3.6 1.8-2.2 5-3.2 2.1 1.1 22.5-3.6 3.9-1.8 4.3 2.5 2.5 1.5 4.3-6.5 4.6v4l-0.7 1.8-10 12.8-1 4.3v5.4l1.7 3.9 1.5 1.4-0.4 5 2.9 8.6 5.3 0.3 2.9 4-0.7 6.8"/>
					</g>
				</g>
				<path id="path2453" fill-rule="evenodd" class="s3" d="m697.5 44.2l-1.3 0.2-1 1.1-0.5 1.6h-6.1l-1.9-2.1-1.1 0.8v1.9l-1.1 0.8-5.1 0.7-0.6-1.6-0.6 0.6-0.3 1.8-1.4 1.1-3.4 0.9-1.4 1-1.6 0.5-3.6 7.5-0.6 0.1-3.7-0.5-1.2 1-0.1 1.8-1 1.1-0.9 2.9-0.8 1.1-0.2 1.9-0.9 1.3-2.4 1.8-1 1.1-0.3 1.9-2 3.9-1.9 0.5-1.1-0.1 0.2 1.1 3.4 3.2 1.9 0.1 3.6 1.7 1.5 2.6 1.4 1 1 1.3 2.1 4.4 0.3 7.6-0.9 0.7-0.3-1.6-0.7-1.7-0.3-1.6-2-2.6-0.1-1.8-0.7-1.8-5-4.4-3-1.6h-1.9l-1.2 1-0.6 2.4-3.7 3.5-3.1 1.2-1.3 1-1.5 0.3-4.2 2.8-5.1 1.6-1.3 0.9-12 0.1-2.4 2.3-1.6 0.6-1.9-0.1-2.5-2-1.6-0.5-3.5 0.8-1 1h-1.9l-8.4 3.4-2.1 0.1-1.6 1-3.7 3.7-3.5 1.6-1.6 1.3-12.1 3.1h-2l-2.9 1.5-1.4 1.3-1.7 0.5-1.7 1-1.2 1.4-2.6 1.7-1.5 0.5-1.1 1.1-1.7 0.3-3.9 1.7-4.7 4.1-2.4 3.5-1.1 0.9-1 2.9-3 3.8-0.2 1.7 0.9 1.3v3.6l-1.7 2-1.3 0.7-1.3 1.3-0.6 1.4-3 4-1.3 1-5.9 8.7 0.4 1.9 0.7 1.5-5.6 7-0.6 3.4-1 0.9-0.5 1.7-2 2.6-0.5 1.4-1.1 1-1.6 0.6-5 6.9-1.3 1.2 0.6 3-0.2 1 0.5 0.5 1.9 0.2 0.2 1.6-0.7 1.5-0.4 3.5-0.8 1.2-0.1 3.9-1.9 2.5-0.5 1.5 1.4 1.2-0.7 1-0.7 1.7-2.2 2.2-5.6 2.4-0.9 1.3-1.3 1.1-1.2 2.8v1.9l-0.4 1.5-0.9 1.1-0.5 1.6-5.5 4.7-1.6 0.8-1 1.1-0.1 1.8 1.8 0.2 0.8 1.7 1.5 0.6 1.9 0.3 0.7 1-1.3 0.7-2.2-0.5-1.1-1-3.9-1.4h-2.4l-4.4 2-5.5 0.3-2 2.4-1.7 0.3-3 5.3-0.6 3.2-1 0.9 1.5 1.1 1.6 0.8 0.1 1.7-1-0.3h-1.4l-2.6 1.6 0.4 2.1-0.4 1.5-1.1-1.7-2.7-2.2-3.2 0.7-1.1 1.3-0.1 0.7-2.3 2.9-9.7 28.7-1.2 1.4-1.2 3.2-5.2 6.8-0.6 1.3-3.1 4-3.7 3.1-3.2 1.2-0.2 2.2-9.1 12.7-1.9 4.6 0.2 3.8-0.1 0.5-1.3 1.7-0.5 1.4-2.8 1.2-1 1.8-4.6 3.2 0.1 1.3 0.5 1.2 0.1 2.1-0.9 1-2.4-0.7 2.8 1.2 0.5 1.3-1 1.4-0.9 0.7-2.2-2.9-0.9 0.5-1.2 1.3-2.1 1.1 0.1 1.8-0.8 1.3-2.7 1.6-0.9 1.4 4.1 5.7-0.1 1.6-0.9 1.3-0.3 1.5-1.1-1.9 0.2-1.6-1.5 1.6-1.5-0.1-0.4-1.9 0.9-1.8-0.2-1.7-1.2 1.2-2.3 6.5 1.6 1.2 0.7 1.4 0.6 0.5 0.1-0.2 1.8 1.1v1.9l-0.6 1.5-3.9 5.7-1.2 0.9-1.5 3.8 0.1 2-1.5 0.4 0.5 1.5 0.7 0.8-1.6 0.8-3.2 4.2-0.1 0.1-2.6 4.3-1.3 0.8-5.5 0.1 0.2 1.5 1.6 1.3-0.2 3.6-1 0.9-0.6 1.4-0.4 1.8-0.9 1.2-0.1 3.8-0.1 0.4-1.1 1.5v1.9l0.7 1.3-0.3 1.9-1.4 1.2-3 1.2-0.7 1.7-2.3 2.4-0.3 3.6-0.6 1.4-2.6 0.5-1.5 1.1-1.6 0.2-2.4 1.8-1.4 0.5-0.3 1.6-4.1 3.1-0.7 3v2.2l-0.9 1.5-0.3 1.6-1.3 0.9-0.6 3.3-2.4 0.1-1.9-0.4-1.4 1.2-1 4.9 0.4 1.1h3.8v0.9l-4.8 7.2-0.2-0.1-0.4 2-0.9 1.1-0.4 1.6-1 1-1.3 4.8-2.1 2.3-0.5 1.9-1.9 2.5-0.6 1.5-0.9 1.1-0.3 2.1-1.2 0.7-1.2 1-1.4 0.7-0.8 1.3-1.4 0.8v1.4l0.9 1.2-0.7 0.5h-1.9l-0.8 1.3-0.3 3.6-0.4 1.1h-3.8l-1.2-0.7-1.4-0.2-0.5 1.5-1.8 0.1-6.1 10.9-0.1 0.6-2.1-0.1-1.3 0.7-2 2.5-0.6 1.6-0.3 3.8-1 1.1-0.3 1.6 1.7 2.4-0.3 1.8-1.6 2.4-3.2 0.1-0.4 1.6v1.8l-2.1 1.2v2.4l-0.1-0.1-0.5 0.2-0.4 1.6v1.9l0.5 1.4 1.9 0.1 1.4 2.1-2.3 2.8-1.4 2.7-0.4 1.5-1.9 3.2-1 3.5-1.2 1.9-2.7 7.5 0.3 7.4-0.4 1.5 0.1 1.4 1.8 0.9-0.1 1.7-1.5 0.6-2.2 1.6 0.5 2.2 1.1 0.6 1.6 0.3 0.1 1.9-1 1.2v3.8l1.2 0.9 2.1 2.8 1.3 1.1-1.2 0.8-0.9 1.6-1.8 0.1-0.5-1.4-1-0.8-1.5 0.8-2.3 2.7-1.5 0.7-0.4 9.1 0.9 1.6 1.8 0.6 5.7-0.4 1.4 0.6v1.9l-0.8 1.4-0.5 1.8-0.9 1.1v2.1l-0.7 1.5 0.3 2 1.7 0.9h1.6l-2.1 4.1-0.2 1.8 1.6 0.4v1.6l-1.1 3.2 0.2 1.9 0.7 1.5 1.3 1 1.4-1.3 0.6 0.9 0.3 3.5-1 1.7-1.3 5-3.7 1.6-1.4-0.2-3 7-0.1 5 0.4 1.5h3.8l1.6 0.7 0.4 1.6-1-1-7.2-1.3-3.9 6.8 0.6 1.3 1 0.2-0.6 1.8-1.3 0.9-0.3 1.8 2.8 1.6 1.2 0.3 1.6-0.5-2.2 3.1-3.4 1.3-0.8 1.3 0.2 1.7 0.8 1.6-2.5 2.3-0.4 1.7-0.8 1.4-2.4-0.7-0.6 1.3-0.8 3.4 0.1 3.8-4.9 9.2-0.5 3.6-1.5 2.5 1.1-1.4 1.6-0.6 1.5-0.2 0.6 8 1.1 0.9 1.5 0.6-0.8 5.3-3.3 1.4h-0.3l-3.5 1.1-3.1 3-3.3 1.5-0.3 3.5 0.3 0.5 0.2 3.7 0.8 0.8h1.9l-0.1 6 0.7 2.4 2.1 2.5 0.3 0.8 1.9-0.7 2.4-2 0.2 1.6-0.2 1.8 4.6 2.8 1 0.2 1.7 1.7 3.2 1.6 3.9 4.2 1.5 0.7 5.3 5 0.1 0.5 3.4 3.3 2.4 3.6 1.7-0.4 2.2-2.1 1.4-0.8-1 2.2-0.9 1.1v1.3l3.3 0.9-1.6 1.4-1.9-0.2-1-1.4-0.9-0.5 0.7 1.9 1.2 1.5 0.5 1.7-0.5 9.6-0.5 1.4 0.5 1.6 1.7 2 0.8 4.2 3 6.3v1.9h0.7l0.2-1.6 0.7-1.3 1.9-0.1 2.1 5-0.3 1.7-1.8 0.2-1.4-0.9-0.8-1.2-0.4 0.9 0.2 1.7 0.7 2.3 0.1 1.8 1.8 3.4v1.4l9 21 0.1 1.8 1.5 3.4 1.4 1.8 4.8 10.4 4.5 5.5-2.1 2.5-3.9-3.9 2.5 6.1-4 3.9-0.3 4.2-0.5 1.6 0.5 1.8 2.8 2.5 0.9 1.4v1.9l0.8 1-0.1 1.9-1.1 0.7 0.7 1.2 1.6 0.7 1.2 3.5 2.7 2.6 0.6 1.4 1.3 1.7 1.1 0.8 1 1.1 0.7 1.4 3 3.8 0.8 1.8-2.7 0.5-0.5 0.6v0.7l1.6 0.3 3.3-0.1 0.6 0.1 3.3 3.6 1.4 0.7 2.3 2.6 0.6 1.4 12.3 9.6 1.7 0.7 2.8 2.5 5.4 1.7 0.3-0.7-0.9-14.5 0.9-2.9 0.9-1.1 1.6 0.3v2l-0.7 1.1-0.2 3.8-0.5 1.2 0.8 1.8 0.1 9.1 2.9 0.2 2 1.9-0.1 1.8-0.9 0.3 1.8 2.3 5 3.7 0.9 1.3 1.4 0.6 0.6 0.1h-0.1l0.1 0.4 3.1 1.3 1.1 1.2 1.5 1.1 2.9 1 1.2 1 1.5 0.7 1 0.9 1.6 0.8 1.2 1 9.6 5.2 1.1 1.3 1.6 0.6 10.9 8.7 0.9 1.2 2 5.4-0.4 0.8 5.5 3.7 5.8 7.3 0.5 1.5v4.8l1.8 2.9 0.7 3.4-0.1 1.8-0.5 1.5 0.1 1.5 4 3.4 0.9 1.3 1.3 1 0.7 1.3 1 3.5 3.3 3.4-0.9 1.8v1.9l0.4 1.7 1.2 1.3 1.6 4.9 0.1 5.6 1 3.3v1.9l0.7 1.2 0.5 2.2 1.2 1.1 0.8 1.3 0.3 1.7 1.3 1.4 0.3 3.6 0.7 1.2-0.1 1.9-0.7 1.3-5.2 1.5 0.2 1.6 1.8 0.4 0.5 1.3-0.1 0.6 0.4 1.6 0.6 1.3-0.6 1.3-0.9 1-2.5 1.5-0.3 1.6 1 1.2-3.8 3.5v3.7l1.6 0.8v1.9l1.2 1.2-0.4 1.5 3.9 3.4 0.4 1.4 1.3 1.3 0.7 1.2 0.5 2.5-0.8 3.1 0.1 5.9-1.1 2.7 0.8 1.1 1.8 0.2 0.9 3.3 1 1.7 3.9 0.4 1.5-2.4 1.2-0.9 0.2-1.7-0.7-3.1 0.6-1.4 1.4-0.6 2-2.2 1.3-0.6h1.8l0.5 1.4 4.2 2.9 0.5 0.1 2.3-0.1 1.6 0.3 0.7 1.3 1.5 0.4 1.4 0.9 1.9 0.6 1.9 0.1 3.8 3.8 0.1 1.8 1.9 0.6 0.9 0.8 0.6 1.2 0.1 1.8 2.7 2.5h1.8l1.3-0.9-0.2-1.6-1.1-0.9-0.3-1.6 0.1-1.8-0.5-1.4-4.9-7.4v-7.3l0.5-1.5-0.6-1.3 0.5-3.1 1-0.3 0.1-1.7 3.4-0.5 1.7-0.6 0.6-1.3 1.5-0.3 1.3-1.1 0.5-1.5 0.1-1.8 0.9-1 1.7-0.1 0.4-3.4 3.7-2.4 0.3-1.4-2-2.5-0.1-9.3-1.1-1.7v-1.9l2.6-4.5 1-1v-1.6l-1.5-0.6-2-2.1-0.6-1.7-0.3-4.8 0.3-0.7h0.8l0.5-0.7 0.8-0.5 0.3-0.7-0.9-1.4 0.1-3.6-0.9-1.3 0.3-0.6 0.5-0.6 0.3-0.6 0.2-0.8-0.2-0.7v-1.9l-0.3-1-0.4-0.5 0.1-1.2-0.7-0.8-0.3-0.8 0.2-1.6 1.4-1.2 0.4-0.6 0.2-0.7v-1.9l-0.2-0.8v-0.7l0.2-0.5-0.9-1 0.7-3.3 1-1.1 0.5-1.4-1-1.1-1.1-16.6-1.3-1.6-0.2-5.4 0.6-1.4v-3.6l2.9-9 2.6-2.6 0.5-5 0.8-1.3 3.6-10.1 0.9-1.1 0.5-1.4 1.9-2.5 0.3-1.8 1-1.3 0.3-3.5 0.9-1.1 0.5-3.6 1.3-1.6-0.2-2.1 2.2-4.2v-3.8l0.9-0.9v-1.9l2.9-6.8v-2.5l1.2-0.8v-1.9l0.7-1.6 0.1-1.8 0.9-1.3 0.2-1.6 0.8-1.3 1.6-0.8 0.9-1.3 3.5-3.2 2-2.8 0.1-1.4 0.7-1.5 0.2-5.2 0.2-0.6-0.1-1.7 0.7-1.6 0.1-1.7 0.9-1.2 0.3-1.6 1.1-1.3 0.9-3.1 1.6-2.6 1.2-1.1 4-1.7 1.2-1.1 1.7-0.1 1-1.2 0.4-1.6 2.7-1.2 2.1-1.8 1.3-0.6 0.9-1.1 1.7-0.2 1-1 1.9-0.2 1.4-0.7 1-0.8 2.2-0.7 2-1.3 3.8-4.5 1.5-0.6 1.1-0.8 0.8-1.1 2.5-2 0.8-1.3 1.1-1 2.8-1.2 2.1-2 1.3-7.9 1.4-1.4 1.6-0.2 2.2-2 0.5-1.6-1.2-2.8 0.4-1.7-1-1.2-1.3-0.6-0.6-1.3 0.8-1.2h1.9l-0.4-1.3-1.8-2-0.6-1.3 0.2-1.6 0.8-1.2 5.8-4.7 3.4-0.5 1.4-0.6 3.2 0.8 0.1-3 2.4-2.6 1.5-0.3 1.2-1.1 0.6-3.1 2.1-4.4 2.2-2.1 3.4-7.4 0.2-3.1 0.7-0.3 0.8-1.5 1.2-1 1.7-0.2 0.5-1.3 3.3-3.5v-1.8l0.5-1.6 0.8-0.8 1.3-5.1 1-1.6 1-2.9 1-1.2 1.1-0.7 0.3-1.7 1.1-1.6 0.9-5.7 1-1.4 1.4-4.9 2-2.9v-1.9l0.8-1.3v-1.9l1.4-0.7 0.8-1.2 3.8-0.1 1.3-0.6 2.2-4.2 1.2-1 3.7-0.1 0.8-2.9-3-3.2-0.1-5.4 1.4-1.4 0.2-3.7-0.3-1.7-1.9-3.8-0.4-8 3-2-0.1-1.4-1-1 1.1-0.5 0.9 1.4 1.4 0.3 1.5-1.2 0.8-1.2-0.6-1.4-0.8-1.2 1.7-6.3 0.2-1.9 0.5-1.5 1-1.2 0.3-4.1 1.2-1.1 0.1-1.7 0.7-1.4 1.3-1.2 0.8-1.3 1.1-3.1 1.3-1 1.5-0.4h1.9l1.5-1.1 1.1-5.5-0.1-5.5 1.8-3.9 1.9-12.7 1.4-0.9v-1.9l3.6-9.2 0.4-3.7 0.5-1.5v-1.9l0.8-1.5-1.7-1-0.3-0.5 1.7-0.1 1.5-0.7 1-1.1 0.6-1.5 0.1-3.7-1.7-2.5v-3.8l-0.6-1.6-0.5-0.4 0.3-2.1 0.8-1.4 0.2-3.7 1.2-3.3 0.2-1.9 1.6-2.4 0.4-1.6 1.4-1.3 0.9-3 0.1-3.9 0.9-1.8 0.1-12.7 1.3-1.6 0.5-3.4 1.5-0.6 1-1.1-0.8-1.2-0.1-1.2 0.9-1.1 0.9-6.9 0.6-1.2 0.2-1.7 0.9-1.1-0.7-2.6-0.9-0.6 0.1-1.8 0.6-1.3v-1.8l1.7-1.1 3.5-5.5 1.4-6.4-0.5-1.4v-10.5l1.3-3.4 2.6-3.5 0.3-1.8 1.9-3.9 0.2-1.6 0.6-1.4v-1.9l1.9-4.3 0.4-3.4 0.6-1.3 0.2-5.5 0.5-1.7 0.6-7.3 0.5-1.4-0.1-5.6-1.4-3 1-3 1.1-1.1 0.7-1.7 1-0.9h1.5l0.8 1.2 1.9-0.2 0.7-3h-1.6l1.1-2.5 1.5-0.5-0.6-1.3 0.4-1.6 1.4 0.3 1-3.4v-1.8l-7.2-7.5-0.5-3.3-0.6-1.2-0.2-11.9 1.5-2.7 3.5-3.4 1.5-0.8 3.2-3.7 1.4-0.5 1.4-2.4 0.4 0.2 0.3-0.5 0.5-5.2 0.7-0.7-2.4-4.3v-5.7l1-3.3 3.9-5.3 1.3-0.8 0.9-1.1 1.5-0.4 3.3-2.9 1.6-0.2 1.3-1 3-5.4 3.5-0.4 0.3-0.1 0.8-2 1.5-0.6 1.1-2.6 1.1-0.9 0.2-5.6 2.6-3.9 2.3-2 0.9-1.5 1.5-0.7 0.6-1.2-0.1-5.3-0.8-1.3 0.2-3.6 2.5-4.8 0.4-1.5 1.5-2.6 0.5-10.9 0.5-1.6 0.9-1.1v-2.2l1-3.5 1.8-2.4 0.5-1.8 2.6-1.6 1-1.2 1.3-2.6 0.1-1.8 4.5-4.2 4.6-2h1.9l0.5-0.2-1.4-0.8-1-1-0.7-1.2v-1.9l-2.6-1.5-0.5-5 1.8-1.1 0.9-1.3 3.2-0.6 2.8-1.8 1.7-0.3 0.5-1.7-0.2-1.5-0.6-1.8-0.1-1.7-0.8-1.2-0.2-3.5 0.7-1.1-0.9-1.4 0.7-1.5h1.9l-0.3-1.4-1-0.9-0.2-0.5 1.5-0.7-1.3 0.3-1.8-0.6-0.1-1.3-2.4-2.2 0.4-1.6 1.8-0.1 1.5 0.9 0.2 1.8 1.8-0.2 1.5-0.8-3.6-3.6-3.1-1-0.4-0.8-0.5-0.1-1.6-2.3-0.1-1.2-3.7-9.1-0.1-3.8-0.8-1.1 0.4-0.7v-2l-0.5-1.7 0.5-10.2-2.9-3.1-0.9-1.5v-1.7l-1.4-1.6-0.6-3.4 0.1-1.8-1-1 0.5-14 0.7-2.2v-1.9l1.2-2.7-0.2-3.7 1-3 0.1-1.8 2.4-5.2 0.2-1.7 1.3-2.2 1.5-0.8 1-2.9 0.9-1.1 1.4-0.5 3.8-4.4 1.3-0.6 3.1-3.7 0.3-3.5 0.5-1.6 2.8-1.6 1.5-0.4 1.5-2.1 1.2-1 1.2-0.5 2.5-3.6 0.3-1.9 1.7-1 1.8-0.2 1.3-0.5 1.1-1.2 1.6-0.2 1.3-0.8 1.9-0.1 3.9-1.8 0.8-1.5 1.7-0.1 0.8-1.1 2.8-1.3 0.7-1.3 1.9-0.2 0.7-1.5 0.1-1.4-1.9-2.1-1.4 0.2-1.1 1-1.2-2.2-1.4-0.5-0.8-1-1.5-0.3-1.8 0.1-0.9 0.8-1.7 1.1-4-0.4-4.9-4-0.4-1.4v-5.7l-0.6-0.8 1.3-1-0.2-0.6-4.2-4.2-1.2-3 1.5-4.6 1.5-1 0.4-1.5-0.7-1.2-1-0.9-0.6-0.9 0.8-1.3 1.2-0.8v-1.8l-1.7-0.2-1.7 0.4-1 1-3.4 1.2h-1.9l-5.9-1.3-1.5 0.6-1.4-0.6-4.4-0.1-3-0.9-1.3 0.7-1.3 1.3h-1.6l-1.1-1.3 0.4-1.6 0.8-1.3 0.6-0.6h-1.9l-1.6 0.6h-1.9l-0.9-1.1 0.5-3.4-1.8 0.1-2.4 1.5-2.1-2-1.9-0.1-0.9-0.6v-2.2l-1.6-0.4-0.8 1.4-1.5 0.4-0.4-1.5h-1.2l0.5 1.5 1.4 2-1.8 2.3-2.8 2-1.3 0.1 2.3-2.1-0.8-1.4v-3.1l-1.5-0.2-1.3-0.7-1.8-0.3-2-2h-3.9l-1.2-0.7 0.3-1.5-0.8-1.5-1.6-0.3-1.3-1.1-1.5-0.5-1.6-1.1-0.6-1.3 0.7-1.5 2.9-1.4-0.3-0.7-1.1-1 1-1.1 1.4-0.8 1.2-1.1-0.3-1.2-4.6 3.9-6.3 0.4-4.9-5.1-0.3-1.2 1.3-1.3-0.6-1.2h-2l-1.4-0.7-2.1-2 0.6-3.8-0.4-1.8-0.7-1.2-1.1-1-3.7-5.2-3.1-1-1.8-2.3-1.4-0.7h-1.9l-1.3-0.9-1.1-1.2-1.2-0.7z"/>
			</g>
		</g>
	</g>
</svg>